<?xml version="1.0" encoding="UTF-8"?>
<!-- Created with Inkscape (http://www.inkscape.org/) -->
<svg width="32" height="32" version="1.1" viewBox="0 0 32 32" xmlns="http://www.w3.org/2000/svg" xmlns:cc="http://creativecommons.org/ns#" xmlns:dc="http://purl.org/dc/elements/1.1/" xmlns:rdf="http://www.w3.org/1999/02/22-rdf-syntax-ns#">
 <metadata>
  <rdf:RDF>
   <cc:Work rdf:about="">
    <dc:format>image/svg+xml</dc:format>
    <dc:type rdf:resource="http://purl.org/dc/dcmitype/StillImage"/>
   </cc:Work>
  </rdf:RDF>
 </metadata>
 <g fill="#f00" aria-label="A">
  <path d="m25.218 13.895q-0.94922 2.0039-1.9102 3.8672-0.96094 1.8633-1.8398 3.9023 0.10547 1.1836 0.25781 2.0859 0.16406 0.89062 0.55078 1.8164 0.57422 1.3711 1.125 1.6289 0.5625 0.24609 1.2305 0 0.43359-0.26953 0.94922-0.30469 0.51562-0.04687 0.78516 0.31641 0.31641 0.45703 0.23438 0.86719-0.07031 0.41016-0.24609 0.75-0.39844 0.80859-1.5469 0.76172-1.3711-0.04687-2.168-1.3594-0.39844-0.65625-0.63281-1.2422-0.22266-0.59766-0.32812-0.94922-0.10547-0.35156-0.36328-1.1367-0.24609-0.79688-0.32812-2.0625-1.418 2.9766-2.9883 6.3516-0.57422 0.24609-1.2773 0.23438-0.70312-0.02344-0.9375-0.22266-0.08203-0.08203-0.05859-0.1875 0.02344-0.10547 0.02344-0.11719 0.66797-1.3477 1.7578-3.3984 1.0898-2.0508 1.8633-3.8203 0.17578-0.42188-0.09375-1.6641-0.25781-1.2422-0.53906-2.25-0.14062-0.50391-0.36328-1.0898-0.21094-0.58594-0.62109-0.58594-0.36328 0-0.69141 0.04687t-0.75-0.05859q-0.30469-0.05859-0.48047-0.53906-0.16406-0.48047 0.03516-0.98438 0.17578-0.45703 0.62109-0.5625 0.45703-0.10547 0.78516-0.07031 0.38672 0.03516 0.70312 0.32812 0.32812 0.28125 0.46875 0.5625 0.5625 1.1602 0.99609 2.6953 0.43359 1.5234 0.65625 2.707 0.87891-1.8633 1.4414-3.1523 0.57422-1.2891 1.4648-3.1641 0.63281-0.07031 1.2305-0.09375 0.60938-0.03516 0.98438 0.09375zm-6.5039-8.2031q0 0.63281 0 1.2422 0.01172 0.60938 0.02344 1.2305 1.4062 0.011719 2.8242 0.023437 1.4297 0 2.8477 0.011719 0.22266 0.035156 0.22266 0.36328 0 1.2656 0.02344 1.4531 0.02344 0.1875 0.02344 1.4531 0 0.02344 0.02344 0.03516t0.02344 0.01172q0 0.24609-0.04687 0.24609-0.30469 0.10547-0.72656 0.05859-0.41016-0.05859-0.77344-0.05859-0.04687 0-0.05859-2.6719-0.94922 0-2.2031-0.023437-1.2422-0.035156-2.2148-0.046875-0.91406 0.035156-1.1016 0-0.17578-0.046875-0.375-0.09375-0.04687 0-0.02344-2.3789 0-0.070312 0-0.15234 0-0.082031 0-0.16406-0.9375 0-2.1914-0.023437-1.2539-0.035156-2.2148-0.058594-0.92578 0.035156-1.1133 0-0.17578-0.046875-0.375-0.082031-0.14062-0.011719-0.08203-0.73828 0.07031-0.72656 0.07031-1.957-1.4766 0-3.4687 0t-2.3555-0.082031q-0.058594-0.17578-0.082031-0.43359-0.035156-0.26953 0.082031-0.44531 1.7695 0.035156 3.5508 0.046875 1.7695 0 3.5508 0.011719 0.22266 0.046875 0.22266 0.36328 0 1.0078 0 1.2891 0.01172 0.28125 0.02344 1.1719 1.4062 0.023437 2.8242 0.035156 1.4297 0 2.8477 0.011719 0.22266 0.035156 0.22266 0.35156z"/>
 </g>
</svg>
