<?xml version="1.0" encoding="UTF-8"?>
<!-- Created with Inkscape (http://www.inkscape.org/) -->
<svg width="32" height="32" version="1.1" viewBox="0 0 32 32" xmlns="http://www.w3.org/2000/svg" xmlns:cc="http://creativecommons.org/ns#" xmlns:dc="http://purl.org/dc/elements/1.1/" xmlns:rdf="http://www.w3.org/1999/02/22-rdf-syntax-ns#">
 <metadata>
  <rdf:RDF>
   <cc:Work rdf:about="">
    <dc:format>image/svg+xml</dc:format>
    <dc:type rdf:resource="http://purl.org/dc/dcmitype/StillImage"/>
   </cc:Work>
  </rdf:RDF>
 </metadata>
 <g fill="#f00" aria-label="Z">
  <path d="m15.359 13.848q-0.94922 2.0039-1.9102 3.8672-0.96094 1.8633-1.8398 3.9023 0.10547 1.1836 0.25781 2.0859 0.16406 0.89062 0.55078 1.8164 0.57422 1.3711 1.125 1.6289 0.5625 0.24609 1.2305 0 0.43359-0.26953 0.94922-0.30469 0.51562-0.04687 0.78516 0.31641 0.31641 0.45703 0.23438 0.86719-0.07031 0.41016-0.24609 0.75-0.39844 0.80859-1.5469 0.76172-1.3594-0.04687-2.1562-1.3594-0.39844-0.65625-0.63281-1.2422-0.23438-0.59766-0.33984-0.94922-0.10547-0.35156-0.36328-1.1367-0.24609-0.79688-0.32812-2.0625-0.75 1.582-1.5 3.1758t-1.4883 3.1758q-0.5625 0.24609-1.2656 0.23438-0.70312-0.02344-0.9375-0.22266-0.09375-0.08203-0.070312-0.1875 0.023437-0.10547 0.023437-0.11719 0.66797-1.3477 1.7578-3.3984 1.0898-2.0508 1.8633-3.8203 0.17578-0.42188-0.082031-1.6641-0.25781-1.2422-0.53906-2.25-0.15234-0.50391-0.375-1.0898-0.21094-0.58594-0.60938-0.58594-0.375 0-0.70312 0.04687-0.31641 0.04687-0.75-0.05859-0.30469-0.05859-0.46875-0.53906t0.023437-0.98438q0.1875-0.45703 0.63281-0.5625 0.45703-0.10547 0.77344-0.07031 0.38672 0.03516 0.71484 0.32812 0.32812 0.28125 0.46875 0.5625 0.5625 1.1602 0.98438 2.6953 0.43359 1.5234 0.65625 2.707 0.87891-1.8633 1.4414-3.1523 0.57422-1.2891 1.4648-3.1641 0.63281-0.07031 1.2305-0.09375 0.60938-0.03516 0.98438 0.09375zm-2.5664-8.1211q0-0.31641 0.22266-0.35156 1.4062-0.011719 2.8242-0.011719 1.4297-0.011719 2.8359-0.035156 0.01172-0.89062 0.01172-1.1719 0.01172-0.28125 0.01172-1.2891 0-0.31641 0.23438-0.36328 1.7578-0.011719 3.5508-0.011719 1.793-0.011719 3.5508-0.035156 0.19922 0.28125 0.01172 0.86719-0.36328 0.082031-2.3672 0.082031-2.0039 0-3.4688 0-0.01172 1.2305 0.04687 1.957 0.07031 0.72656-0.07031 0.73828-0.19922 0.035156-0.38672 0.082031-0.17578 0.035156-1.0898 0-0.97266 0.023437-2.2266 0.058594-1.2539 0.023437-2.1914 0.023437 0 0.082031 0 0.17578 0 0.082031 0 0.15234 0.01172 2.3672-0.02344 2.3672-0.19922 0.046875-0.38672 0.09375-0.17578 0.035156-1.0898 0-0.97266 0.011719-2.2266 0.046875-1.2539 0.023437-2.1914 0.023437-0.023437 2.6719-0.046875 2.6719-0.375 0-0.79688 0.05859-0.42188 0.04687-0.71484-0.05859-0.035156 0-0.035156-0.23438 0-0.01172 0.011719-0.02344 0.023437-0.01172 0.023437-0.03516 0-1.2656 0.023437-1.4531 0.035156-0.1875 0.035156-1.4531 0-0.31641 0.22266-0.36328 1.4062 0 2.8242-0.011719 1.4297-0.011719 2.8359-0.023437 0.03516-1.2422 0.03516-2.4727z"/>
 </g>
</svg>
