<?xml version="1.0" encoding="UTF-8"?>
<svg version="1.1" viewBox="-10472 -10457 32 32" xmlns="http://www.w3.org/2000/svg">
 <defs>
  <style>.cls-1 {
        fill: none;
      }

      .cls-2 {
        fill: #000;
      }</style>
 </defs>
 <g fill="#f00" aria-label="}">
  <path d="m-10453-10444 0.971-0.957 0.301-0.369q0.3-0.301 0.588-0.01 0.287 0.287-0.03 0.615l-0.793 0.752-0.519 0.506 1.312 1.354q0.287 0.246-0.01 0.505-0.301 0.246-0.534 0l-1.299-1.339-1.38 1.326q0.67 0.888 0.67 1.968 0 1.34-0.944 2.284-0.943 0.929-2.269 0.929-1.327 0-2.27-0.929-0.943-0.944-0.943-2.284 0-1.312 0.943-2.255 0.943-0.957 2.27-0.957 1.175 0 2.064 0.752l1.354-1.354-1.354-1.395q-0.273-0.287 0.01-0.519 0.287-0.232 0.519 0.01zm-3.937 6.877q1.052 0 1.791-0.739 0.738-0.738 0.738-1.791 0-1.025-0.738-1.763-0.739-0.752-1.791-0.752-1.026 0-1.764 0.752-0.752 0.738-0.752 1.763 0 1.053 0.752 1.791 0.738 0.739 1.764 0.739z"/>
 </g>
</svg>
