<?xml version="1.0" encoding="UTF-8"?>
<svg version="1.1" viewBox="-10472 -10457 32 32" xmlns="http://www.w3.org/2000/svg">
 <defs>
  <style>.cls-1 {
        fill: none;
      }

      .cls-2 {
        fill: #000;
      }</style>
 </defs>
 <g fill="#f00" aria-label="+">
  <path d="m-10453-10444q0.123-0.08 0.246-0.205 0.123-0.137 0.219-0.233l-1.395-1.449q-0.287-0.287 0.01-0.533 0.301-0.246 0.547 0l1.381 1.435 0.328-0.328 0.1-0.15q0.314-0.301 0.615 0 0.287 0.301-0.04 0.629l-0.465 0.41 1.353 1.381q0.301 0.273 0 0.533-0.314 0.246-0.56-0.01l-1.34-1.367-0.465 0.451 1.354 1.381q0.3 0.274 0 0.533-0.315 0.246-0.561 0l-1.34-1.381-0.451 0.465 1.367 1.395q0.301 0.273 0 0.533-0.3 0.246-0.56 0l-1.354-1.394-0.861 0.82q0.711 0.888 0.711 2.037 0 1.381-0.971 2.351-0.984 0.971-2.365 0.971-1.367 0-2.352-0.971-0.984-0.97-0.984-2.351 0-1.367 0.984-2.352 0.985-0.984 2.352-0.984 1.217 0 2.133 0.779l0.834-0.834-1.408-1.449q-0.274-0.287 0.03-0.533 0.301-0.246 0.533 0l1.395 1.435 0.437-0.451-1.394-1.463q-0.288-0.287 0.03-0.533 0.301-0.246 0.533 0zm-4.498 7.547q1.08 0 1.846-0.752 0.765-0.766 0.765-1.846t-0.765-1.846q-0.766-0.765-1.846-0.765-1.066 0-1.832 0.765-0.779 0.766-0.779 1.846t0.779 1.846q0.766 0.752 1.832 0.752z"/>
 </g>
</svg>
