<?xml version="1.0" encoding="UTF-8"?>
<svg version="1.1" viewBox="-10472 -10457 32 32" xmlns="http://www.w3.org/2000/svg">
 <defs>
  <style>.cls-1 {
        fill: none;
      }

      .cls-2 {
        fill: #000;
      }</style>
 </defs>
 <g fill="#f00" aria-label='"'>
  <path d="m-10459-10438-0.328 0.314-0.315 0.383q-0.301 0.314-0.574 0.01-0.287-0.301 0.01-0.629l0.669-0.643-1.326-1.367q-0.287-0.246 0.01-0.506 0.301-0.26 0.533-0.01l1.326 1.368 0.698-0.684-1.354-1.381q-0.287-0.26 0.01-0.519 0.301-0.26 0.533-0.01l1.353 1.394 0.834-0.834q-0.697-0.888-0.697-2.009 0-1.34 0.985-2.311 0.97-0.971 2.324-0.971 1.34 0 2.297 0.971 0.97 0.971 0.97 2.311 0 1.367-0.97 2.338-0.957 0.97-2.297 0.97-1.19 0-2.106-0.779l-0.834 0.834 1.395 1.422q0.273 0.301-0.03 0.547-0.301 0.232-0.534-0.03l-1.367-1.408-0.697 0.684 1.394 1.435q0.287 0.287-0.01 0.533-0.301 0.247-0.533-0.01zm4.703-7.698q-1.067 0-1.819 0.766-0.765 0.752-0.765 1.805 0 1.08 0.765 1.832 0.752 0.752 1.819 0.752 1.053 0 1.804-0.752 0.752-0.752 0.752-1.832 0-1.053-0.752-1.805-0.751-0.766-1.804-0.766z"/>
 </g>
</svg>
