<?xml version="1.0" encoding="UTF-8"?>
<svg version="1.1" viewBox="-10472 -10457 32 32" xmlns="http://www.w3.org/2000/svg">
 <defs>
  <style>.cls-1 {
        fill: none;
      }

      .cls-2 {
        fill: #000;
      }</style>
 </defs>
 <g fill="#f00" aria-label="=">
  <path d="m-10459-10438q-0.109 0.08-0.233 0.219-0.123 0.123-0.232 0.219l1.395 1.435q0.3 0.301 0 0.547-0.301 0.246-0.561-0.01l-1.381-1.435-0.314 0.342-0.11 0.136q-0.3 0.328-0.588 0.03-0.287-0.301 0.01-0.629l0.465-0.424-1.354-1.381q-0.273-0.26 0.03-0.506 0.301-0.26 0.533-0.01l1.34 1.368 0.465-0.451-1.354-1.381q-0.287-0.26 0.03-0.506 0.3-0.26 0.533-0.01l1.34 1.367 0.451-0.451-1.367-1.408q-0.288-0.26 0.03-0.506 0.301-0.26 0.533-0.01l1.354 1.395 0.847-0.834q-0.697-0.889-0.697-2.023 0-1.368 0.984-2.338 0.971-0.985 2.338-0.985 1.395 0 2.366 0.985 0.97 0.97 0.97 2.338 0 1.38-0.97 2.351-0.971 0.971-2.366 0.971-1.189 0-2.119-0.766l-0.834 0.82 1.395 1.45q0.3 0.287 0 0.533-0.301 0.246-0.561-0.01l-1.381-1.422-0.437 0.465 1.394 1.436q0.287 0.287-0.01 0.547-0.301 0.246-0.547-0.01zm4.484-7.547q-1.052 0-1.818 0.779-0.779 0.766-0.779 1.833 0 1.08 0.779 1.845 0.766 0.752 1.818 0.752 1.08 0 1.846-0.752 0.766-0.765 0.766-1.845 0-1.067-0.766-1.833-0.766-0.779-1.846-0.779z"/>
 </g>
</svg>
