<?xml version="1.0" encoding="UTF-8"?>
<svg version="1.1" viewBox="-10472 -10457 32 32" xmlns="http://www.w3.org/2000/svg">
 <defs>
  <style>.cls-1 {
        fill: none;
      }

      .cls-2 {
        fill: #000;
      }</style>
 </defs>
 <g fill="#f00" aria-label="+">
  <path d="m-10455-10442 2.803-2.803 0.314-0.369q0.287-0.287 0.575 0 0.273 0.273-0.03 0.588l-0.793 0.752-2.392 2.324q0.656 0.875 0.656 1.955 0 1.312-0.93 2.242-0.943 0.93-2.242 0.93-1.312 0-2.242-0.93-0.943-0.93-0.943-2.242 0-1.299 0.943-2.242 0.93-0.944 2.242-0.944 1.148 0 2.037 0.739zm-2.037 4.935q1.039 0 1.764-0.724 0.724-0.725 0.724-1.764 0-1.025-0.724-1.75-0.725-0.738-1.764-0.738-1.025 0-1.75 0.738-0.738 0.725-0.738 1.75 0 1.039 0.738 1.764 0.725 0.724 1.75 0.724z"/>
 </g>
</svg>
