<?xml version="1.0" encoding="UTF-8"?>
<svg version="1.1" viewBox="-10472 -10457 32 32" xmlns="http://www.w3.org/2000/svg">
 <defs>
  <style>.cls-1 {
        fill: none;
      }

      .cls-2 {
        fill: #000;
      }</style>
 </defs>
 <g fill="#f00" aria-label="{">
  <path d="m-10459-10438-0.957 0.957-0.314 0.37q-0.274 0.314-0.547 0.03-0.287-0.301 0-0.615l0.807-0.78 0.505-0.492-1.312-1.353q-0.274-0.246 0.03-0.493 0.287-0.246 0.52-0.01l1.299 1.34 1.38-1.34q-0.683-0.862-0.683-1.955 0-1.326 0.957-2.27 0.957-0.943 2.269-0.943 1.327 0 2.256 0.943 0.944 0.944 0.944 2.27t-0.944 2.269q-0.929 0.944-2.256 0.944-1.148 0-2.05-0.752l-1.368 1.353 1.368 1.395q0.273 0.287-0.01 0.533-0.301 0.232-0.533-0.01zm3.951-6.877q-1.039 0-1.777 0.752-0.738 0.739-0.738 1.778t0.738 1.777 1.777 0.738 1.778-0.738q0.738-0.738 0.738-1.777t-0.738-1.778q-0.739-0.752-1.778-0.752z"/>
 </g>
</svg>
