<?xml version="1.0" encoding="UTF-8"?>
<svg version="1.1" viewBox="-10472 -10457 32 32" xmlns="http://www.w3.org/2000/svg">
 <defs>
  <style>.cls-1 {
        fill: none;
      }

      .cls-2 {
        fill: #000;
      }</style>
 </defs>
 <g fill="#f00" aria-label="-">
  <path d="m-10457-10440-2.871 2.885-0.301 0.356q-0.287 0.314-0.56 0.03-0.287-0.301 0.01-0.629l0.793-0.766 2.447-2.365q-0.684-0.861-0.684-1.982 0-1.34 0.957-2.284 0.957-0.957 2.283-0.957 1.34 0 2.297 0.957 0.944 0.944 0.944 2.284t-0.944 2.297q-0.957 0.943-2.297 0.943-1.175 0-2.078-0.766zm2.078-5.004q-1.039 0-1.791 0.752-0.765 0.739-0.765 1.778 0 1.052 0.765 1.804 0.752 0.739 1.791 0.739 1.053 0 1.791-0.739 0.739-0.752 0.739-1.804 0-1.039-0.739-1.778-0.738-0.752-1.791-0.752z"/>
 </g>
</svg>
