<?xml version="1.0" encoding="UTF-8"?>
<!-- Created with Inkscape (http://www.inkscape.org/) -->
<svg width="32" height="32" version="1.1" viewBox="0 0 32 32" xmlns="http://www.w3.org/2000/svg" xmlns:cc="http://creativecommons.org/ns#" xmlns:dc="http://purl.org/dc/elements/1.1/" xmlns:rdf="http://www.w3.org/1999/02/22-rdf-syntax-ns#">
 <metadata>
  <rdf:RDF>
   <cc:Work rdf:about="">
    <dc:format>image/svg+xml</dc:format>
    <dc:type rdf:resource="http://purl.org/dc/dcmitype/StillImage"/>
   </cc:Work>
  </rdf:RDF>
 </metadata>
 <g fill="#f00" aria-label="">
  <path d="m16.098 4.6809c1.176 0.084 2.156 0.28 2.996 0.616 0.812 0.336 1.68 1.036 2.604 2.128l-0.28 0.308c-0.896-0.84-1.708-1.428-2.436-1.708-0.756-0.28-1.708-0.448-2.884-0.532-0.896 0.056-1.736 0.168-2.576 0.364-0.84 0.224-1.82 0.84-2.94 1.876l-0.28-0.252c0.728-0.952 1.54-1.652 2.38-2.072s1.988-0.672 3.416-0.728zm-0.42 3.332v18.984c0 0.168 0.112 0.28 0.364 0.308 0.224 0.056 0.42-0.056 0.532-0.308v-18.984c-0.028-0.196-0.168-0.308-0.448-0.336-0.28 0-0.448 0.112-0.448 0.336z"/>
 </g>
</svg>
