<?xml version="1.0" encoding="UTF-8"?>
<svg version="1.1" viewBox="-10472 -10457 32 32" xmlns="http://www.w3.org/2000/svg">
 <defs>
  <style>.cls-1 {
        fill: none;
      }

      .cls-2 {
        fill: #000;
      }</style>
 </defs>
 <g aria-label="gear">
  <path d="m-10457-10453q0.672-0.08 1.359-0.08 0.688 0 1.36 0.08l0.406 2.922q1.047 0.203 2.047 0.671l1.969-2.062q1.187 0.703 2.187 1.703l-1.312 2.438q0.734 0.781 1.25 1.718l2.578-0.484q0.578 1.312 0.828 2.75l-2.313 1.078q0.06 0.547 0.06 1.078t-0.06 1.078l2.313 1.094q-0.25 1.422-0.828 2.734l-2.578-0.484q-0.516 0.938-1.25 1.734l1.312 2.422q-1 1-2.187 1.719l-1.969-2.062q-1 0.453-2.047 0.671l-0.406 2.907q-0.672 0.09-1.36 0.09-0.687 0-1.359-0.09l-0.406-2.907q-1.047-0.218-2.047-0.671l-1.969 2.062q-1.187-0.719-2.187-1.719l1.312-2.422q-0.734-0.781-1.25-1.734l-2.578 0.484q-0.578-1.312-0.828-2.734l2.312-1.094q-0.06-0.547-0.06-1.078t0.06-1.078l-2.312-1.078q0.25-1.438 0.828-2.75l2.578 0.484q0.516-0.937 1.25-1.734l-1.312-2.422q1-1 2.187-1.703l1.969 2.047q1-0.453 2.047-0.656zm6.219 6.968q-2.016-2.031-4.86-2.031-2.843 0-4.859 2.031-2.016 2.016-2.016 4.86 0 2.828 2.016 4.844 2.016 2.015 4.859 2.015 2.844 0 4.86-2.015 2.015-2.016 2.015-4.844 0-2.844-2.015-4.86zm-3.157 3.141q0.719 0.703 0.719 1.703t-0.719 1.719q-0.703 0.703-1.703 0.703t-1.718-0.703q-0.704-0.719-0.704-1.719t0.704-1.703q0.718-0.719 1.718-0.719t1.703 0.719z"/>
 </g>
</svg>
