<?xml version="1.0" encoding="UTF-8"?>
<!-- Created with Inkscape (http://www.inkscape.org/) -->
<svg width="32" height="32" version="1.1" viewBox="0 0 32 32" xmlns="http://www.w3.org/2000/svg" xmlns:cc="http://creativecommons.org/ns#" xmlns:dc="http://purl.org/dc/elements/1.1/" xmlns:rdf="http://www.w3.org/1999/02/22-rdf-syntax-ns#">
 <metadata>
  <rdf:RDF>
   <cc:Work rdf:about="">
    <dc:format>image/svg+xml</dc:format>
    <dc:type rdf:resource="http://purl.org/dc/dcmitype/StillImage"/>
   </cc:Work>
  </rdf:RDF>
 </metadata>
 <g fill="#f00" aria-label="3">
  <path d="m15.699 12.439v-1.4082l-0.05469-0.49219q0-0.45117 0.42383-0.4375 0.42383 0 0.4375 0.45117l-0.02734 1.1621-0.02734 0.73828 1.9688 0.02734q0.39648 0 0.36914 0.39648-0.02734 0.38281-0.39648 0.38281l-1.9414-0.02734-0.04102 1.9961q1.1484 0.15039 1.9551 0.95703 0.98438 0.98438 0.98438 2.3789 0 1.3945-0.98438 2.3516-0.9707 0.98437-2.3652 0.98437t-2.3652-0.98438q-0.98438-0.95703-0.98438-2.3516 0-1.3945 0.98438-2.3789 0.82031-0.84766 2.0645-0.9707v-1.9961l-2.0371-0.02734q-0.41016 0-0.35547-0.38281 0.04101-0.39648 0.38281-0.39648zm2.1465 7.9707q0.7793-0.76562 0.7793-1.8457 0-1.0938-0.7793-1.8594-0.75195-0.7793-1.832-0.7793-1.0938 0-1.873 0.7793-0.76562 0.76562-0.76562 1.8594 0 1.0801 0.76562 1.8457 0.7793 0.76562 1.873 0.76562 1.0801 0 1.832-0.76562z"/>
 </g>
</svg>
