<?xml version="1.0" encoding="UTF-8"?>
<!-- Created with Inkscape (http://www.inkscape.org/) -->
<svg width="32" height="32" version="1.1" viewBox="0 0 32 32" xmlns="http://www.w3.org/2000/svg" xmlns:cc="http://creativecommons.org/ns#" xmlns:dc="http://purl.org/dc/elements/1.1/" xmlns:rdf="http://www.w3.org/1999/02/22-rdf-syntax-ns#">
 <metadata>
  <rdf:RDF>
   <cc:Work rdf:about="">
    <dc:format>image/svg+xml</dc:format>
    <dc:type rdf:resource="http://purl.org/dc/dcmitype/StillImage"/>
   </cc:Work>
  </rdf:RDF>
 </metadata>
 <g fill="#f00" aria-label="9">
  <path d="m19.837 12.75 1.9277-2.6387 0.25977-0.42383q0.25977-0.35547 0.60156-0.095703 0.32812 0.24609 0.05469 0.61523l-0.68359 0.91602-1.6133 2.0918q0.95703 0.99805 0.95703 2.3105 0 1.3809-0.98438 2.3652-0.98438 0.9707-2.3652 0.9707-0.82031 0-1.5723-0.39648l-2.0781 2.707q-0.3418 0.46484-0.80664 0.75195-0.47852 0.27344-0.7793 0.42383-0.3418 0.20508-1.0117 0.16406-0.68359-0.04102-1.0664-0.21875-0.88867-0.38281-1.2988-1.1484-0.42383-0.7793 0.13672-1.5586 0.66992-0.95703 1.75-0.23242 0.32812 0.23242 0.35547 0.79297 0.02734 0.56055-0.3418 0.86133-0.56055 0.51953-0.25976 0.71094 0.4375 0.28711 1.2988 0.02734 0.86133-0.25977 1.3262-0.86133l2.1738-2.8301q-1.1621-1.0117-1.1621-2.5293 0-1.3672 0.98438-2.3516t2.3516-0.98438q1.0254 0 1.8457 0.56055zm-1.8457 0.16406q-1.0664 0-1.832 0.76562-0.7793 0.76562-0.7793 1.8457t0.7793 1.8594q0.76562 0.76562 1.832 0.76562 1.0938 0 1.8594-0.76562 0.76562-0.7793 0.76562-1.8594t-0.76562-1.8457-1.8594-0.76562z"/>
 </g>
</svg>
