<?xml version="1.0" encoding="UTF-8"?>
<!-- Created with Inkscape (http://www.inkscape.org/) -->
<svg width="32" height="32" version="1.1" viewBox="0 0 32 32" xmlns="http://www.w3.org/2000/svg" xmlns:cc="http://creativecommons.org/ns#" xmlns:dc="http://purl.org/dc/elements/1.1/" xmlns:rdf="http://www.w3.org/1999/02/22-rdf-syntax-ns#">
 <metadata>
  <rdf:RDF>
   <cc:Work rdf:about="">
    <dc:format>image/svg+xml</dc:format>
    <dc:type rdf:resource="http://purl.org/dc/dcmitype/StillImage"/>
   </cc:Work>
  </rdf:RDF>
 </metadata>
 <g fill="#f00" aria-label="h">
  <path d="m15.651 19.337q-1.2578-0.13672-2.1328-1.0938t-0.875-2.2559q0-1.3125 0.875-2.2559t2.1328-1.0801l-0.01367-2.9668q0-0.36914 0.36914-0.38281 0.36914-0.027344 0.36914 0.38281l-0.02734 2.9668q1.2578 0.13672 2.1328 1.0938 0.875 0.94336 0.875 2.2422 0 1.2988-0.875 2.2559t-2.1328 1.0938l0.02734 2.9258q0 0.45117-0.36914 0.4375-0.36914-0.02734-0.36914-0.4375zm0.3418-5.9883q-1.0664 0-1.8457 0.7793t-0.7793 1.8594 0.7793 1.8594q0.7793 0.76562 1.8457 0.76562 1.0938 0 1.873-0.76562 0.76562-0.7793 0.76562-1.8594t-0.76562-1.8594q-0.7793-0.7793-1.873-0.7793z"/>
 </g>
</svg>
