<?xml version="1.0" encoding="UTF-8"?>
<!-- Created with Inkscape (http://www.inkscape.org/) -->
<svg width="32" height="32" version="1.1" viewBox="0 0 32 32" xmlns="http://www.w3.org/2000/svg" xmlns:cc="http://creativecommons.org/ns#" xmlns:dc="http://purl.org/dc/elements/1.1/" xmlns:rdf="http://www.w3.org/1999/02/22-rdf-syntax-ns#">
 <metadata>
  <rdf:RDF>
   <cc:Work rdf:about="">
    <dc:format>image/svg+xml</dc:format>
    <dc:type rdf:resource="http://purl.org/dc/dcmitype/StillImage"/>
   </cc:Work>
  </rdf:RDF>
 </metadata>
 <g fill="#f00" aria-label="d">
  <path d="m13.344 17.232-0.88867 1.7227q-0.15039 0.32812 1.1484-0.27344 1.2988-0.61523 3.3359 0.51953 0.30078 0.17773 0.90234 0.72461 0.58789 0.5332 1.0527 0.32812 0.04102 0-0.42383-0.62891-0.46484-0.62891 0.41016-1.2715 0.58789-0.39648 1.2852 0.17774 0.69726 0.56055 0.19141 1.6543-0.27344 0.61523-0.9707 0.75195-0.69727 0.12305-1.2031 0.08203-1.6543-0.06836-2.4883-0.80664-0.83398-0.75195-1.9277-0.86133-1.0801-0.08203-1.2168 0.24609-0.13672 0.32812-0.56055 0.27344-0.12305 0-0.25977-0.17774-0.13672-0.17773-0.13672-0.23242-0.04101-0.21875 0.05469-0.32812 0.08203-0.12305 0.12305-0.20508l1.0664-1.9961q-1.4082-0.98438-1.4082-2.6934 0-1.3398 0.9707-2.2969 0.9707-0.9707 2.3105-0.9707 1.3535 0 2.3105 0.9707 0.95703 0.95703 0.95703 2.2969 0 1.3535-0.95703 2.3242-0.95703 0.95703-2.3105 0.95703-0.68359 0-1.3672-0.28711zm1.3672-5.5645q-1.0527 0-1.8184 0.76562-0.76562 0.75195-0.76562 1.8047 0 1.0664 0.76562 1.832 0.76562 0.75195 1.8184 0.75195 1.0527 0 1.8184-0.75195 0.75195-0.76562 0.75195-1.832 0-1.0527-0.75195-1.8047-0.76562-0.76562-1.8184-0.76562z"/>
 </g>
</svg>
