<?xml version="1.0" encoding="UTF-8"?>
<!-- Created with Inkscape (http://www.inkscape.org/) -->
<svg width="32" height="32" version="1.1" viewBox="0 0 32 32" xmlns="http://www.w3.org/2000/svg" xmlns:cc="http://creativecommons.org/ns#" xmlns:dc="http://purl.org/dc/elements/1.1/" xmlns:rdf="http://www.w3.org/1999/02/22-rdf-syntax-ns#">
 <metadata>
  <rdf:RDF>
   <cc:Work rdf:about="">
    <dc:format>image/svg+xml</dc:format>
    <dc:type rdf:resource="http://purl.org/dc/dcmitype/StillImage"/>
   </cc:Work>
  </rdf:RDF>
 </metadata>
 <g fill="#f00" aria-label="l">
  <path d="m18.217 9.5843q0.08203 0.28711-0.31445 0.32812-0.39648 0.041016-0.4375-0.24609-0.04102-0.39648-0.08203-0.62891-0.04102-0.23242-0.06836-0.38281-1.1211 0.15039-2.5293 0.32812-1.4219 0.17773-2.5566 0.36914l3.9375 1.2031q0.23242 0.06836 0.45117 0.61523 0.21875 0.5332 0 0.64258l-4.7441 2.584 4.5801 1.627q0.23242 0.08203 0.58789 0.71094 0.35547 0.62891 0.01367 0.75195l-5.0039 1.9824q-0.06836 0.04102 1.8457 0.13672 1.9004 0.08203 3.418 0.28711 1.1895 0.16406 1.7773 0.41016 0.57422 0.24609 0.99805 0.47852 0.36914 0.20508 0.7793 0.83398 0.41016 0.62891 0.45117 1.0938 0.08203 1.1211-0.42383 1.9688-0.50586 0.84766-1.627 0.76562-0.57422-0.04102-0.91602-0.51953-0.3418-0.47852-0.30078-1.0938 0.04101-0.49219 0.50586-0.83398 0.46484-0.35547 0.9707-0.20508 0.94336 0.28711 0.9707-0.12305 0.08203-1.4902-2.3652-1.8867-3.8828-0.58789-5.2363-0.42383-1.3672 0.15039-1.7637-0.15039-0.25977-0.13672-0.31445-0.51953-0.05469-0.38281 0.27344-0.50586l4.7715-1.8457-4.8672-1.791q-0.08203-0.04102-0.27344-0.5332-0.19141-0.49219 0.25976-0.73828l4.5527-2.4062q-1.1484-0.32812-2.2832-0.66992-1.1348-0.3418-2.2832-0.66992-0.23242-0.06836-0.28711-0.83398-0.068359-0.7793 0.30078-0.82031 0.50586-0.15039 2.584-0.4375 2.0781-0.30078 3.6094-0.51953-0.01367-0.16406-0.05469-0.38281-0.05469-0.21875-0.13672-0.61523 0-0.36914 0.38281-0.36914 0.36914 0 0.39648 0.25977 0.04102 0.3418 0.08203 0.58789 0.04102 0.23242 0.06836 0.42383 0.28711-0.027344 0.60156-0.068359 0.30078-0.054687 0.54688-0.095703 0.28711-0.027344 0.31445 0.36914 0.02734 0.39648-0.23242 0.41016-0.15039 0.041016-0.46484 0.068359-0.32812 0.013672-0.65625 0.054687 0.04101 0.20508 0.0957 0.45117 0.04102 0.24609 0.0957 0.57422z"/>
 </g>
</svg>
