<?xml version="1.0" encoding="UTF-8"?>
<!-- Created with Inkscape (http://www.inkscape.org/) -->
<svg width="32" height="32" version="1.1" viewBox="0 0 32 32" xmlns="http://www.w3.org/2000/svg" xmlns:cc="http://creativecommons.org/ns#" xmlns:dc="http://purl.org/dc/elements/1.1/" xmlns:rdf="http://www.w3.org/1999/02/22-rdf-syntax-ns#">
 <metadata>
  <rdf:RDF>
   <cc:Work rdf:about="">
    <dc:format>image/svg+xml</dc:format>
    <dc:type rdf:resource="http://purl.org/dc/dcmitype/StillImage"/>
   </cc:Work>
  </rdf:RDF>
 </metadata>
 <g fill="#f00" aria-label="6">
  <path d="m13.894 18.608-2.2832 2.3105q-0.28711 0.28711-0.54688 0.04102-0.25976-0.24609 0.04102-0.54688l2.2969-2.2832q-0.76562-0.95703-0.69727-2.2148 0.05469-1.2578 0.92969-2.1465 0.90234-0.90234 2.1602-0.95703 1.2578-0.05469 2.2148 0.72461l2.3926-2.4609q0.30078-0.28711 0.54688-0.01367 0.23242 0.25977-0.04102 0.51953l-2.4336 2.4199q0.79297 0.9707 0.73828 2.2285-0.05469 1.2578-0.95703 2.1465-0.88867 0.90234-2.1465 0.95703-1.2578 0.05469-2.2148-0.72461zm3.8555-4.3477q-0.73828-0.75195-1.791-0.75195-1.0664 0-1.8184 0.75195-0.75195 0.76562-0.75195 1.8184 0 1.0527 0.75195 1.8047t1.8184 0.75195q1.0527 0 1.791-0.75195 0.76562-0.75195 0.76562-1.8047 0-1.0527-0.76562-1.8184z"/>
 </g>
</svg>
