<?xml version="1.0" encoding="UTF-8"?>
<!-- Created with Inkscape (http://www.inkscape.org/) -->
<svg width="32" height="32" version="1.1" viewBox="0 0 32 32" xmlns="http://www.w3.org/2000/svg" xmlns:cc="http://creativecommons.org/ns#" xmlns:dc="http://purl.org/dc/elements/1.1/" xmlns:rdf="http://www.w3.org/1999/02/22-rdf-syntax-ns#">
 <metadata>
  <rdf:RDF>
   <cc:Work rdf:about="">
    <dc:format>image/svg+xml</dc:format>
    <dc:type rdf:resource="http://purl.org/dc/dcmitype/StillImage"/>
   </cc:Work>
  </rdf:RDF>
 </metadata>
 <g fill="#f00" aria-label="4">
  <path d="m13.797 18.625-2.7891 2.7754-0.30078 0.36914q-0.30078 0.31445-0.58789 0.02734-0.30078-0.30078 0.01367-0.64258l0.83398-0.7793 2.3379-2.2832q-0.69726-0.875-0.69726-2.0098 0-1.3535 0.98438-2.3242 0.9707-0.98438 2.3379-0.98438 1.1895 0 2.1055 0.76562l1.3945-1.3945-1.3945-1.4355q-0.27344-0.28711 0.02734-0.51953 0.30078-0.24609 0.5332 0l1.3809 1.4219 0.98438-0.99805 0.32812-0.36914q0.30078-0.31445 0.60156-0.01367 0.28711 0.30078-0.02734 0.62891l-0.82031 0.76562-0.54688 0.51953 1.3672 1.3945q0.27344 0.25977-0.02734 0.51953-0.30078 0.25977-0.54688 0l-1.3398-1.3809-1.4219 1.3672q0.69726 0.90234 0.69726 2.0371 0 1.3672-0.95703 2.3379-0.9707 0.95703-2.3379 0.95703-1.2168 0-2.1328-0.75195zm2.1328 0.04102q1.0664 0 1.832-0.75195 0.75195-0.75195 0.75195-1.832 0-1.0664-0.75195-1.832-0.76562-0.76562-1.832-0.76562-1.0664 0-1.832 0.76562-0.7793 0.76562-0.7793 1.832 0 1.0801 0.7793 1.832 0.76562 0.75195 1.832 0.75195z"/>
 </g>
</svg>
