<?xml version="1.0" encoding="UTF-8"?>
<!-- Created with Inkscape (http://www.inkscape.org/) -->
<svg width="32" height="32" version="1.1" viewBox="0 0 32 32" xmlns="http://www.w3.org/2000/svg" xmlns:cc="http://creativecommons.org/ns#" xmlns:dc="http://purl.org/dc/elements/1.1/" xmlns:rdf="http://www.w3.org/1999/02/22-rdf-syntax-ns#">
 <metadata>
  <rdf:RDF>
   <cc:Work rdf:about="">
    <dc:format>image/svg+xml</dc:format>
    <dc:type rdf:resource="http://purl.org/dc/dcmitype/StillImage"/>
   </cc:Work>
  </rdf:RDF>
 </metadata>
 <g fill="#f00" aria-label="5">
  <path d="m15.692 19.534-1.9961 0.04102q-0.3418 0.01367-0.38281-0.36914-0.05469-0.39648 0.35547-0.41016l2.0234-0.02734v-1.9961q-1.2031-0.10938-2.0645-0.9707-0.9707-0.9707-0.9707-2.3516 0-1.3945 0.9707-2.3789 0.98438-0.9707 2.3789-0.9707 1.3809 0 2.3516 0.9707 0.98438 0.98438 0.98438 2.3789 0 1.3809-0.98438 2.3516-0.79297 0.82031-1.9414 0.95703l0.02734 1.9961 1.9414-0.02734q0.36914 0 0.39648 0.39648 0.02734 0.39648-0.36914 0.38281l-1.9688 0.02734 0.02734 0.73828 0.02734 1.1621q-0.01367 0.45117-0.42383 0.46484-0.42383 0-0.42383-0.45117l0.04102-0.49219zm2.1602-7.9434q-0.76562-0.76562-1.8457-0.76562-1.0938 0-1.873 0.76562-0.76562 0.7793-0.76562 1.8594t0.76562 1.8457q0.7793 0.7793 1.873 0.7793 1.0801 0 1.8457-0.7793 0.7793-0.76562 0.7793-1.8457t-0.7793-1.8594z"/>
 </g>
</svg>
