<?xml version="1.0" encoding="UTF-8"?>
<!-- Created with Inkscape (http://www.inkscape.org/) -->
<svg width="32" height="32" version="1.1" viewBox="0 0 32 32" xmlns="http://www.w3.org/2000/svg" xmlns:cc="http://creativecommons.org/ns#" xmlns:dc="http://purl.org/dc/elements/1.1/" xmlns:rdf="http://www.w3.org/1999/02/22-rdf-syntax-ns#">
 <metadata>
  <rdf:RDF>
   <cc:Work rdf:about="">
    <dc:format>image/svg+xml</dc:format>
    <dc:type rdf:resource="http://purl.org/dc/dcmitype/StillImage"/>
   </cc:Work>
  </rdf:RDF>
 </metadata>
 <g fill="#f00" aria-label="1">
  <path d="m18.809 17.025-5.8516-1.3398q-0.027344 0.10938-0.027344 0.31445 0 1.2441 0.90234 2.1328 0.88867 0.88867 2.1328 0.88867 0.98438 0 1.7637-0.56055 0.76562-0.57422 1.0801-1.4355zm0.16406-0.72461q0.01367-0.06836 0.01367-0.30078 0-1.2441-0.875-2.1328-0.88867-0.88867-2.1465-0.88867-0.9707 0-1.7363 0.56055-0.76562 0.54688-1.1074 1.4219zm0.72461 0.16406 4.0879 0.92969q1.1758 0.25977 1.4082-0.54688 0.21875-0.82031-1.3809-1.1621-0.58789-0.10938-0.35547-1.1484 0.21875-1.0391 1.4355-0.73828 1.2031 0.31445 1.4492 1.3672 0.23242 1.0391-0.05469 1.668-0.15039 0.36914-0.7793 0.98438-0.64258 0.60156-1.9004 0.31445l-4.0742-0.92969q-0.36914 1.1211-1.3398 1.8594-0.9707 0.72461-2.2285 0.72461-1.5586 0-2.6797-1.1074-1.1211-1.1211-1.1211-2.6797 0-0.19141 0.05469-0.47852l-4.0059-0.92969q-1.2168-0.27344-1.4219 0.56055-0.21875 0.82031 1.3809 1.1484 0.58789 0.12305 0.36914 1.1621-0.23242 1.0254-1.4492 0.72461-1.1758-0.28711-1.4219-1.3398-0.24609-1.0527 0.027344-1.6953 0.15039-0.35547 0.76562-0.9707 0.61523-0.61524 1.9277-0.32812l3.9922 0.91602q0.39648-1.1074 1.3809-1.832 0.9707-0.72461 2.2012-0.72461 1.5723 0 2.6797 1.1211 1.1074 1.1074 1.1074 2.666 0 0.27344-0.05469 0.46484z"/>
 </g>
</svg>
