<?xml version="1.0" encoding="UTF-8"?>
<!-- Created with Inkscape (http://www.inkscape.org/) -->
<svg width="32" height="32" version="1.1" viewBox="0 0 32 32" xmlns="http://www.w3.org/2000/svg" xmlns:cc="http://creativecommons.org/ns#" xmlns:dc="http://purl.org/dc/elements/1.1/" xmlns:rdf="http://www.w3.org/1999/02/22-rdf-syntax-ns#">
 <metadata>
  <rdf:RDF>
   <cc:Work rdf:about="">
    <dc:format>image/svg+xml</dc:format>
    <dc:type rdf:resource="http://purl.org/dc/dcmitype/StillImage"/>
   </cc:Work>
  </rdf:RDF>
 </metadata>
 <g fill="#f00" aria-label="`">
  <path d="m12.326 15.268h6.0156q-0.0957-1.1348-0.94336-1.9414-0.86133-0.80664-2.0645-0.80664-1.1621 0-2.0234 0.80664-0.875 0.79297-0.98438 1.9414zm0 0.57422q0.08203 1.1758 0.94336 1.9551 0.86133 0.7793 2.0645 0.7793 1.1895 0 2.0508-0.7793 0.84766-0.79297 0.95703-1.9551zm9.8574-0.46484q0.83398 0.04102 1.2168 0.08203 0.38281 0.02734 0.90234 0.06836 0.58789 0.04101 1.1484 0.23242 0.54688 0.19141 0.91602 0.32812 0.42383 0.19141 0.80664 0.61523 0.38281 0.41016 0.46484 0.875 0.21875 1.0527-0.20508 1.8594t-1.4902 0.79297q-1.2578-0.01367-1.2578-1.3945 0-0.45117 0.46484-0.80664 0.45117-0.35547 0.95703-0.23242 0.54688 0.12305 0.69727 0.05469 0.13672-0.06836 0.13672-0.30078 0-0.57422-0.76562-0.98438-0.76562-0.42383-1.5996-0.50586-0.7793-0.06836-1.1895-0.08203-0.41016-0.02734-1.1621-0.05469v2.2148q0 0.38281-0.28711 0.38281h-0.13672q-0.27344 0-0.27344-0.38281v-2.2559q-0.4375 0-1.0938-0.01367-0.66992-0.02734-1.3262-0.02734-0.0957 1.4902-1.1758 2.502-1.0801 0.99805-2.5977 0.99805-1.4902 0-2.5703-0.99805-1.0938-1.0117-1.1895-2.502-2.3516-0.04102-3.7324 0.04102-1.3809 0.08203-3.0762 0.08203-0.10938 0-0.28711-0.04102-0.19141-0.04101-0.19141-0.10938v-0.31445q0-0.06836 0.19141-0.10938 0.17773-0.05469 0.28711-0.05469 1.6953 0 3.3906-0.04102t3.4043-0.04102q0.12305-1.4492 1.2031-2.4609 1.0801-1.0254 2.5703-1.0254 1.4902 0 2.5703 1.0254 1.0801 1.0117 1.1895 2.4609 0.65625 0 1.2168 0.05469 0.56055 0.04101 1.2168 0.02734v-2.1602q0-0.39648 0.27344-0.39648h0.13672q0.28711 0 0.28711 0.39648z"/>
 </g>
</svg>
