<?xml version="1.0" encoding="UTF-8"?>
<!-- Created with Inkscape (http://www.inkscape.org/) -->
<svg width="32" height="32" version="1.1" viewBox="0 0 32 32" xmlns="http://www.w3.org/2000/svg" xmlns:cc="http://creativecommons.org/ns#" xmlns:dc="http://purl.org/dc/elements/1.1/" xmlns:rdf="http://www.w3.org/1999/02/22-rdf-syntax-ns#">
 <metadata>
  <rdf:RDF>
   <cc:Work rdf:about="">
    <dc:format>image/svg+xml</dc:format>
    <dc:type rdf:resource="http://purl.org/dc/dcmitype/StillImage"/>
   </cc:Work>
  </rdf:RDF>
 </metadata>
 <g fill="#f00" aria-label="8">
  <path d="m18.206 13.373 2.7891-2.8027 0.31445-0.36914q0.31445-0.32812 0.61524-0.02734 0.28711 0.30078-0.02734 0.64258l-0.83398 0.76562-2.3652 2.2969q0.69727 0.88867 0.69727 2.0371 0 1.3672-0.9707 2.3516-0.98438 0.9707-2.3516 0.9707-1.2168 0-2.1465-0.76562l-1.3945 1.3945 1.3945 1.4492q0.30078 0.28711 0 0.5332-0.30078 0.24609-0.54688-0.01367l-1.3945-1.4219-0.99805 0.99805-0.31445 0.36914q-0.30078 0.31445-0.58789 0.02734-0.30078-0.30078 0.01367-0.64258l0.83398-0.79297 0.51953-0.51953-1.3535-1.3809q-0.27344-0.25976 0.02734-0.51953 0.28711-0.25976 0.51953-0.01367l1.3535 1.3945 1.4355-1.3809q-0.69726-0.91602-0.69726-2.0371 0-1.3672 0.98438-2.3516 0.9707-0.98438 2.3516-0.98438 1.2031 0 2.1328 0.79297zm-2.1328-0.06836q-1.0664 0-1.8457 0.7793-0.7793 0.76562-0.7793 1.832 0 1.0801 0.7793 1.8457 0.7793 0.75195 1.8457 0.75195t1.8457-0.75195q0.76562-0.76562 0.76562-1.8457 0-1.0664-0.76562-1.832-0.7793-0.7793-1.8457-0.7793z"/>
 </g>
</svg>
