<?xml version="1.0" encoding="UTF-8"?>
<!-- Created with Inkscape (http://www.inkscape.org/) -->
<svg width="32" height="32" version="1.1" viewBox="0 0 32 32" xmlns="http://www.w3.org/2000/svg" xmlns:cc="http://creativecommons.org/ns#" xmlns:dc="http://purl.org/dc/elements/1.1/" xmlns:rdf="http://www.w3.org/1999/02/22-rdf-syntax-ns#">
 <metadata>
  <rdf:RDF>
   <cc:Work rdf:about="">
    <dc:format>image/svg+xml</dc:format>
    <dc:type rdf:resource="http://purl.org/dc/dcmitype/StillImage"/>
   </cc:Work>
  </rdf:RDF>
 </metadata>
 <g fill="#f00" aria-label="0">
  <path d="m17.127 17.09-2.0234 2.6387q-0.3418 0.46484-0.79297 0.73828-0.46484 0.25977-0.76562 0.4375-0.32812 0.17773-0.98438 0.13672-0.66992-0.04102-1.0391-0.20508-0.875-0.36914-1.2852-1.1211-0.41016-0.76562 0.13672-1.5449 0.66992-0.92969 1.709-0.21875 0.32812 0.24609 0.35547 0.79297 0.02734 0.5332-0.32812 0.83398-0.54688 0.50586-0.25977 0.69727 0.42383 0.28711 1.2715 0.02734 0.84766-0.25976 1.2988-0.84766l2.1191-2.7754q-1.1348-0.98438-1.1348-2.4609 0-1.3535 0.9707-2.3105 0.95703-0.95703 2.2969-0.95703 1.3535 0 2.3105 0.95703t0.95703 2.3105-0.95703 2.3105q-0.95703 0.94336-2.3105 0.94336-0.84766 0-1.5449-0.38281zm1.5449-5.4277q-1.0527 0-1.8047 0.75195-0.75195 0.75195-0.75195 1.8047 0 1.0664 0.75195 1.8184 0.75195 0.73828 1.8047 0.73828 1.0664 0 1.8184-0.73828 0.73828-0.75195 0.73828-1.8184 0-1.0527-0.73828-1.8047-0.75195-0.75195-1.8184-0.75195z"/>
 </g>
</svg>
