<?xml version="1.0" encoding="UTF-8"?>
<!-- Created with Inkscape (http://www.inkscape.org/) -->
<svg width="32" height="32" version="1.1" viewBox="0 0 32 32" xmlns="http://www.w3.org/2000/svg" xmlns:cc="http://creativecommons.org/ns#" xmlns:dc="http://purl.org/dc/elements/1.1/" xmlns:rdf="http://www.w3.org/1999/02/22-rdf-syntax-ns#">
 <metadata>
  <rdf:RDF>
   <cc:Work rdf:about="">
    <dc:format>image/svg+xml</dc:format>
    <dc:type rdf:resource="http://purl.org/dc/dcmitype/StillImage"/>
   </cc:Work>
  </rdf:RDF>
 </metadata>
 <g fill="#f00" aria-label="2">
  <path d="m19.292 15.268q1.9824 0 2.9531 0.08203 0.95703 0.08203 1.9824 0.19141 0.61524 0.06836 1.1758 0.23242 0.56055 0.15039 0.94336 0.30078 1.0801 0.47852 1.2852 1.5039 0.21875 1.0664-0.20508 1.9004-0.4375 0.82031-1.5176 0.7793-1.2441-0.01367-1.2715-1.4082 0-0.47852 0.46484-0.83398 0.45117-0.35547 0.98438-0.23242 0.56055 0.15039 0.69727 0.08203 0.13672-0.08203 0.13672-0.31445 0-0.58789-0.75195-0.9707-0.76562-0.38281-1.6543-0.49219-1.8184-0.17774-2.7207-0.20508-0.90234-0.02734-2.4883-0.02734-0.0957 1.5176-1.1895 2.5293-1.1074 1.0117-2.6387 1.0117-1.5039 0-2.5977-1.0117-1.1074-1.0117-1.2031-2.5293-2.3926-0.02734-3.7871 0.05469-1.3945 0.08203-3.1172 0.08203-0.10938 0-0.28711-0.04102-0.19141-0.04102-0.19141-0.12305v-0.31445q0-0.05469 0.19141-0.0957 0.19141-0.05469 0.28711-0.05469 1.7227 0 3.4453-0.04101 1.7227-0.05469 3.4316-0.05469 0.13672-1.4629 1.2305-2.4883 1.0938-1.0391 2.5977-1.0391t2.6113 1.0391q1.0938 1.0254 1.2031 2.4883zm-6.8496 0.01367h6.084q-0.0957-1.1484-0.95703-1.9551-0.875-0.82031-2.0918-0.82031-1.1758 0-2.0508 0.80664t-0.98438 1.9688zm0 0.57422q0.06836 1.2031 0.94336 1.9961 0.875 0.7793 2.0918 0.7793 1.2031 0 2.0781-0.79297 0.86133-0.80664 0.95703-1.9824z"/>
 </g>
</svg>
