<?xml version="1.0" encoding="UTF-8"?>
<!-- Created with Inkscape (http://www.inkscape.org/) -->
<svg width="32" height="32" version="1.1" viewBox="0 0 32 32" xmlns="http://www.w3.org/2000/svg" xmlns:cc="http://creativecommons.org/ns#" xmlns:dc="http://purl.org/dc/elements/1.1/" xmlns:rdf="http://www.w3.org/1999/02/22-rdf-syntax-ns#">
 <metadata>
  <rdf:RDF>
   <cc:Work rdf:about="">
    <dc:format>image/svg+xml</dc:format>
    <dc:type rdf:resource="http://purl.org/dc/dcmitype/StillImage"/>
   </cc:Work>
  </rdf:RDF>
 </metadata>
 <g fill="#f00" aria-label="7">
  <path d="m15.177 12.354q0.21875-0.58789 0.5332-1.3398 0.31445-0.76562 0.31445-0.92969 0.16406-0.36914 0.49219-0.27344 0.31445 0.095703 0.17773 0.45117l-0.92969 2.2695q0.80664 0.32812 1.3398 1.0664 0.51953 0.73828 0.51953 1.668 0 1.2168-0.86133 2.0918-0.86133 0.86133-2.0918 0.86133-0.61523 0-1.2305-0.27344l-0.92969 2.3926q-0.13672 0.28711 1.0391-0.17774 1.1621-0.47852 2.502 0.0957l0.65625 0.4375q0.51953 0.49219 1.0801 0.75195 0.56055 0.24609 0.9707 0.05469 0.02734 0-0.38281-0.56055-0.41016-0.56055 0.38281-1.1348 0.51953-0.36914 1.1621 0.15039 0.62891 0.51953 0.16406 1.4902-0.25977 0.56055-0.88867 0.68359-0.62891 0.10938-1.0801 0.06836-1.9277-0.05469-2.6797-0.72461-0.76562-0.68359-1.75-0.7793-0.79297 0.05469-0.99805 0.28711-0.21875 0.23242-0.60156 0.19141-0.10938 0-0.21875-0.16406-0.12305-0.16406-0.13672-0.21875-0.04101-0.19141 0.04102-0.28711 0.08203-0.10938 0.10938-0.19141l1.0801-2.6387q-1.2441-0.875-1.2441-2.4062 0-1.2168 0.875-2.0781 0.86133-0.875 2.0781-0.875 0.28711 0 0.50586 0.04102zm-0.50586 0.60156q-0.94336 0-1.627 0.68359-0.69726 0.66992-0.69726 1.627t0.69726 1.6406q0.68359 0.68359 1.627 0.68359 0.95703 0 1.6406-0.68359 0.68359-0.68359 0.68359-1.6406t-0.68359-1.627q-0.68359-0.68359-1.6406-0.68359z"/>
 </g>
</svg>
