<?xml version="1.0" encoding="UTF-8"?>
<!-- Created with Inkscape (http://www.inkscape.org/) -->
<svg width="32" height="32" version="1.1" viewBox="0 0 32 32" xmlns="http://www.w3.org/2000/svg" xmlns:cc="http://creativecommons.org/ns#" xmlns:dc="http://purl.org/dc/elements/1.1/" xmlns:rdf="http://www.w3.org/1999/02/22-rdf-syntax-ns#">
 <metadata>
  <rdf:RDF>
   <cc:Work rdf:about="">
    <dc:format>image/svg+xml</dc:format>
    <dc:type rdf:resource="http://purl.org/dc/dcmitype/StillImage"/>
   </cc:Work>
  </rdf:RDF>
 </metadata>
 <g fill="#f00" aria-label="g">
  <path d="m11.106 18.533 4.7578-1.8457-4.8672-1.8047q-0.08203-0.01367-0.27344-0.50586-0.19141-0.50586 0.25976-0.75195l4.5527-2.4062q-1.1348-0.32812-2.2695-0.66992-1.1484-0.3418-2.2969-0.66992-0.21875-0.068359-0.27344-0.83398-0.06836-0.76562 0.28711-0.83398 1.8047-0.24609 3.6367-0.50586 1.832-0.27344 3.5684-0.50586 0.23242-0.027344 0.23242 0.32812 0 0.3418-0.21875 0.38281-0.61523 0.13672-2.4336 0.32812-1.832 0.17773-3.541 0.46484l3.9375 1.2031q0.24609 0.068359 0.46484 0.61523 0.20508 0.5332 0 0.64258l-4.7578 2.584 4.5801 1.6133q0.23242 0.08203 0.58789 0.72461 0.35547 0.62891 0.02734 0.75195l-5.0039 1.9824q-0.08203 0.02734 1.832 0.12305 1.9141 0.08203 3.4316 0.28711 1.1895 0.17773 1.7637 0.42383t0.99805 0.47852q0.38281 0.20508 0.79297 0.83398 0.41016 0.62891 0.4375 1.0938 0.0957 1.1211-0.41016 1.9688-0.50586 0.84766-1.6406 0.76562-1.3125-0.10938-1.2168-1.6133 0.04102-0.47852 0.50586-0.83398 0.46484-0.35547 0.98438-0.20508 0.94336 0.28711 0.95703-0.12305 0.10938-1.4902-2.3652-1.8867-3.8691-0.58789-5.2363-0.42383-1.3672 0.15039-1.7637-0.15039-0.24609-0.13672-0.30078-0.51953t0.27344-0.50586z"/>
 </g>
</svg>
