<?xml version="1.0" encoding="UTF-8"?>
<svg version="1.1" viewBox="-10472 -10457 32 32" xmlns="http://www.w3.org/2000/svg">
 <defs>
  <style>.cls-1 {
        fill: none;
      }

      .cls-2 {
        fill: #000;
      }</style>
 </defs>
 <g fill="#f00" aria-label="v">
  <path d="m-10464-10436q-2.023-2.187-2.023-4.676 0-2.324 2.023-4.662h0.848q-0.656 0.957-0.916 1.463-0.807 1.531-0.807 3.199 0 2.338 1.723 4.676zm16.694 0.01h-0.848q1.709-2.311 1.709-4.676 0-1.682-0.793-3.199-0.355-0.656-0.916-1.463h0.848q2.023 2.338 2.023 4.662 0 2.475-2.023 4.676zm-12.866-1.08v-7.205h9.038v7.205h-1.381q0.08-0.862 0.09-2.502 0-1.641 0-3.022h-6.494q0 1.381 0.01 3.022 0.01 1.64 0.1 2.502z"/>
 </g>
</svg>
