<?xml version="1.0" encoding="UTF-8"?>
<svg version="1.1" viewBox="-10472 -10457 32 32" xmlns="http://www.w3.org/2000/svg">
 <defs>
  <style>.cls-1 {
        fill: none;
      }

      .cls-2 {
        fill: #000;
      }</style>
 </defs>
 <g fill="#f00" aria-label="b">
  <path d="m-10464-10436q-2.024-2.187-2.024-4.676 0-2.324 2.024-4.662h0.847q-0.601 0.875-0.916 1.463-0.806 1.6-0.806 3.199 0 2.338 1.722 4.676zm16.556 0.01h-0.847q1.709-2.311 1.709-4.676 0-1.627-0.793-3.199-0.301-0.588-0.916-1.463h0.847q2.024 2.338 2.024 4.662 0 2.475-2.024 4.676zm-11.006-2.242h4.102q0.287 0 0.889-0.151 0.601-0.164 0.601-0.82 0-0.588-0.601-0.82-0.616-0.233-1.053-0.233h-3.938zm-2.05 1.148v-7.191h6.084q0.806 0 2.064 0.369t1.258 1.476q0 1.039-1.408 1.532 0.67 0.15 1.285 0.574 0.601 0.41 0.601 1.176 0 1.408-1.353 1.75-1.367 0.328-2.393 0.328zm2.05-4.279h3.774q0.383 0 0.902-0.123 0.506-0.137 0.506-0.711 0-0.698-0.533-0.807-0.533-0.123-1.025-0.123h-3.624z"/>
 </g>
</svg>
