<?xml version="1.0" encoding="UTF-8"?>
<svg version="1.1" viewBox="-10472 -10457 32 32" xmlns="http://www.w3.org/2000/svg">
 <defs>
  <style>.cls-1 {
        fill: none;
      }

      .cls-2 {
        fill: #000;
      }</style>
 </defs>
 <g fill="#f00" aria-label="`">
  <path d="m-10467-10437q-2.024-2.188-2.024-4.676 0-2.324 2.024-4.662h0.847q-0.656 0.957-0.916 1.463-0.806 1.531-0.806 3.199 0 2.338 1.722 4.676zm21.478 0.01h-0.847q1.709-2.311 1.709-4.676 0-1.682-0.793-3.199-0.356-0.657-0.916-1.463h0.847q2.024 2.338 2.024 4.662 0 2.474-2.024 4.676zm-9.802-1.08h-9.831q-0.136 0-0.177-0.274l4.019-6.932h1.942l4.156 6.891q0.1 0.08 0.03 0.205-0.07 0.11-0.136 0.11zm-2.393-1.19-2.981-4.785-2.693 4.785zm3.404-1.094v-0.793q1.231 0.616 1.723 0.93 0.492 0.301 1.49 1.094v-7.233h1.039v7.233q1.121-1.067 3.213-2.051v0.807q-1.49 1.339-2.269 2.31-0.78 0.957-1.258 1.983h-0.479q-0.383-0.889-1.162-1.901-0.793-1.011-2.297-2.379z"/>
 </g>
</svg>
