<?xml version="1.0" encoding="UTF-8"?>
<svg version="1.1" viewBox="-10472 -10457 32 32" xmlns="http://www.w3.org/2000/svg">
 <defs>
  <style>.cls-1 {
        fill: none;
      }

      .cls-2 {
        fill: #000;
      }</style>
 </defs>
 <g fill="#f00" aria-label="?">
  <path d="m-10465-10436q-2.023-2.187-2.023-4.676 0-2.324 2.023-4.662h0.848q-0.656 0.957-0.916 1.463-0.807 1.531-0.807 3.199 0 2.338 1.723 4.676zm17.788 0.01h-0.848q1.709-2.311 1.709-4.676 0-1.682-0.793-3.199-0.356-0.656-0.916-1.463h0.848q2.023 2.338 2.023 4.662 0 2.475-2.023 4.676zm-3.036-1.08h-1.586v-5.592l-3.609 5.592h-1.572l-3.596-5.688v5.688h-1.353v-7.205h2.324l3.541 5.769 3.65-5.769h2.201z"/>
 </g>
</svg>
