<?xml version="1.0" encoding="UTF-8"?>
<svg version="1.1" viewBox="-10472 -10457 32 32" xmlns="http://www.w3.org/2000/svg">
 <defs>
  <style>.cls-1 {
        fill: none;
      }

      .cls-2 {
        fill: #000;
      }</style>
 </defs>
 <g fill="#f00" aria-label="c">
  <path d="m-10465-10436q-2.024-2.187-2.024-4.676 0-2.324 2.024-4.662h0.847q-0.656 0.957-0.916 1.463-0.806 1.531-0.806 3.199 0 2.338 1.722 4.676zm18.06 0.01h-0.847q1.709-2.311 1.709-4.676 0-1.682-0.793-3.199-0.356-0.656-0.916-1.463h0.847q2.024 2.338 2.024 4.662 0 2.475-2.024 4.676zm-14.232-1.08v-7.205h2.201l6.959 4.99v-4.99h1.244v7.205h-1.23l-7.944-5.701v5.701z"/>
 </g>
</svg>
