<?xml version="1.0" encoding="UTF-8"?>
<svg version="1.1" viewBox="-10472 -10457 32 32" xmlns="http://www.w3.org/2000/svg">
 <defs>
  <style>.cls-1 {
        fill: none;
      }

      .cls-2 {
        fill: #000;
      }</style>
 </defs>
 <g fill="#f00" aria-label="1">
  <path d="m-10467-10437q-2.024-2.188-2.024-4.676 0-2.324 2.024-4.662h0.847q-0.656 0.957-0.916 1.463-0.806 1.531-0.806 3.199 0 2.338 1.722 4.676zm21.478 0.01h-0.847q1.709-2.311 1.709-4.676 0-1.682-0.793-3.199-0.356-0.657-0.916-1.463h0.847q2.024 2.338 2.024 4.662 0 2.474-2.024 4.676zm-17.199-3.323v2.243h-1.955v-7.206h1.955v3.418l5.865-3.418h2.407l-5.059 3.036 5.879 4.17h-3.063l-4.47-3.172zm8.818-0.04v-0.793q1.231 0.616 1.723 0.93 0.492 0.301 1.49 1.094v-7.233h1.039v7.233q1.121-1.067 3.213-2.051v0.807q-1.49 1.339-2.269 2.31-0.78 0.957-1.258 1.983h-0.479q-0.382-0.889-1.162-1.901-0.793-1.011-2.297-2.379z"/>
 </g>
</svg>
