<?xml version="1.0" encoding="UTF-8"?>
<svg version="1.1" viewBox="-10472 -10457 32 32" xmlns="http://www.w3.org/2000/svg">
 <defs>
  <style>.cls-1 {
        fill: none;
      }

      .cls-2 {
        fill: #000;
      }</style>
 </defs>
 <g aria-label=".">
  <path d="m-10464-10436q-2.024-2.187-2.024-4.676 0-2.324 2.024-4.662h0.847q-0.656 0.957-0.916 1.463-0.806 1.531-0.806 3.199 0 2.338 1.722 4.676zm15.736 0.01h-0.847q1.708-2.311 1.708-4.676 0-1.682-0.792-3.199-0.356-0.656-0.916-1.463h0.847q2.024 2.338 2.024 4.662 0 2.475-2.024 4.676zm-12.4-8.285h9.064q0.137 0 0.11 0.232l-5.866 5.756h6.207l-0.3 1.217h-9.516q-0.109-0.01-0.109-0.246l5.838-5.743h-5.811z" fill="#f00"/>
 </g>
</svg>
