<?xml version="1.0" encoding="UTF-8"?>
<svg version="1.1" viewBox="-10472 -10457 32 32" xmlns="http://www.w3.org/2000/svg">
 <defs>
  <style>.cls-1 {
        fill: none;
      }

      .cls-2 {
        fill: #000;
      }</style>
 </defs>
 <g fill="#f00" aria-label=",">
  <path d="m-10464-10436q-2.024-2.187-2.024-4.676 0-2.324 2.024-4.662h0.847q-0.656 0.957-0.916 1.463-0.806 1.531-0.806 3.199 0 2.338 1.722 4.676zm16.146 0.01h-0.847q1.709-2.311 1.709-4.676 0-1.682-0.793-3.199-0.356-0.656-0.916-1.463h0.847q2.024 2.338 2.024 4.662 0 2.475-2.024 4.676zm-11.047-3.322v2.242h-1.955v-7.205h1.955v3.418l5.866-3.418h2.406l-5.059 3.035 5.879 4.17h-3.062l-4.471-3.172z"/>
 </g>
</svg>
