<?xml version="1.0" encoding="UTF-8"?>
<svg version="1.1" viewBox="-10472 -10457 32 32" xmlns="http://www.w3.org/2000/svg">
 <defs>
  <style>.cls-1 {
        fill: none;
      }

      .cls-2 {
        fill: #000;
      }</style>
 </defs>
 <g fill="#f00" aria-label="">
  <path d="m-10467-10436h0.84c-1.176-1.568-1.736-3.108-1.736-4.676 0-1.092 0.252-2.156 0.812-3.192 0.168-0.336 0.476-0.84 0.924-1.484h-0.84c-1.372 1.568-2.044 3.136-2.044 4.676 0 1.68 0.7 3.22 2.044 4.676zm21.476 0c1.344-1.456 2.016-3.024 2.016-4.676 0-1.54-0.672-3.08-2.016-4.648h-0.868c0.364 0.56 0.672 1.036 0.924 1.456 0.532 1.008 0.812 2.072 0.812 3.192-0.03 1.568-0.616 3.136-1.736 4.676zm-3.36-7.448c0.504 0.672 1.288 1.484 2.296 2.38v0.784c-0.84-0.392-1.4-0.7-1.736-0.924-0.336-0.196-0.812-0.56-1.484-1.092v6.552h-1.036v-6.552c-0.728 0.728-1.792 1.4-3.192 2.044v-0.812c0.98-0.896 1.736-1.652 2.268-2.296 0.504-0.616 0.924-1.288 1.26-1.988h0.476c0.224 0.616 0.616 1.232 1.148 1.904zm-15.736-0.84-0.392 1.232h5.796l-5.824 5.74c0 0.168 0.03 0.252 0.112 0.252h9.52l0.28-1.232h-6.188l5.852-5.74c0-0.168-0.03-0.252-0.112-0.252z"/>
 </g>
</svg>
