<?xml version="1.0" encoding="UTF-8"?>
<svg version="1.1" viewBox="-10472 -10457 32 32" xmlns="http://www.w3.org/2000/svg">
 <defs>
  <style>.cls-1 {
        fill: none;
      }

      .cls-2 {
        fill: #000;
      }</style>
 </defs>
 <g fill="#f00" aria-label="m">
  <path d="m-10464-10436q-2.023-2.187-2.023-4.676 0-2.324 2.023-4.662h0.848q-0.656 0.957-0.916 1.463-0.807 1.531-0.807 3.199 0 2.338 1.723 4.676zm15.19 0.01h-0.848q1.709-2.311 1.709-4.676 0-1.682-0.793-3.199-0.355-0.656-0.916-1.463h0.848q2.023 2.338 2.023 4.662 0 2.475-2.023 4.676zm-2.694-1.08h-9.83q-0.136 0-0.177-0.274l4.019-6.931h1.941l4.157 6.89q0.09 0.08 0.03 0.205-0.07 0.11-0.137 0.11zm-2.392-1.19-2.981-4.785-2.693 4.785z" fill="#f00"/>
 </g>
</svg>
