<?xml version="1.0" encoding="UTF-8"?>
<svg version="1.1" viewBox="-10472 -10457 32 32" xmlns="http://www.w3.org/2000/svg">
 <defs>
  <style>.cls-1 {
        fill: none;
      }

      .cls-2 {
        fill: #000;
      }</style>
 </defs>
 <g aria-label="m">
  <path d="m-10456-10453q-3.144-0.218-3.623 1.286-1.039 2.871-1.435 4.238-0.383 1.367-0.793 2.666-0.411 1.285-0.752 2.68-0.342 1.38-0.52 3.076-0.178 1.681-0.08 3.117 0.109 1.435 0.479 2.721 0.369 1.285 0.929 2.064 0.561 0.779 1.395 1.422 0.847 0.629 2.597 0.793 1.094 0 2.024-0.574 0.943-0.575 1.982-2.065 0.287 1.367 0.821 1.901 0.533 0.533 1.914 0.724 1.312-0.08 1.791-0.301 0.492-0.218 1.107-0.929l-0.109-0.615q-0.424 0.232-0.807 0.355-0.369 0.123-1.08 0.04-0.465-0.08-0.861-0.492-0.383-0.41-0.438-1.149-0.04-0.738 0.725-4.129 0.779-3.404 1.025-4.525 0.26-1.135-0.342-1.135-0.601 0-1.203 0-0.601 0-0.793 1.149-0.177 1.135-0.382 2.297-0.206 1.162-0.493 2.297-0.273 1.134-0.588 2.05-0.3 0.903-0.642 1.545-0.342 0.643-1.039 1.108-0.697 0.451-1.737 0.533-1.23-0.164-1.9-0.492-0.656-0.342-1.258-1.08-0.588-0.739-0.875-1.983t-0.273-2.406q0.03-1.162 0.191-2.598 0.178-1.435 0.711-2.994 0.533-1.558 1.203-3.008 0.684-1.449 1.573-2.953 0.888-1.517 1.558-2.461 0.67-0.943 0.998-1.613 0.342-0.67-0.998-0.561z"/>
 </g>
</svg>
