<?xml version="1.0" encoding="UTF-8"?>
<svg version="1.1" viewBox="-10472 -10457 32 32" xmlns="http://www.w3.org/2000/svg">
 <defs>
  <style>.cls-1 {
        fill: none;
      }

      .cls-2 {
        fill: #000;
      }</style>
 </defs>
 <g aria-label="n">
  <path d="m-10450-10446q0 1.737-0.903 4.635-0.889 2.898-1.299 4.689-0.41 1.778-0.382 2.967 0.04 1.176 0.82 2.106 0.793 0.916 1.599 1.08 0.561 0.08 0.916-0.03 0.37-0.109 0.93-0.396l0.123 0.629q-0.588 0.67-1.244 0.902-0.643 0.233-1.641 0.205-1.544-0.03-2.83-1.271-1.285-1.244-1.394-2.776-0.11-1.531 0.355-3.199 0.479-1.681 1.422-4.758 0.957-3.076 1.094-5.181 0.03-1.463-0.766-2.434-0.793-0.984-2.42-1.23-2.187-0.233-3.869 1.422-1.094 1.544-0.861 3.363 0.109 1.312 0.342 1.873 0.246 0.56 0.246 1.148 0 0.451-0.424 0.67-0.424 0.205-1.49 0.26-0.725-0.369-1.162-2.064-0.424-1.696-0.151-3.993 0.615-2.091 2.434-3.418 1.832-1.339 5.414-1.107 3.131 0.437 4.129 2.119 1.012 1.682 1.012 3.787z"/>
 </g>
</svg>
