<?xml version="1.0" encoding="UTF-8"?>
<!-- Created with Inkscape (http://www.inkscape.org/) -->
<svg width="32" height="32" version="1.1" viewBox="0 0 32 32" xmlns="http://www.w3.org/2000/svg" xmlns:cc="http://creativecommons.org/ns#" xmlns:dc="http://purl.org/dc/elements/1.1/" xmlns:rdf="http://www.w3.org/1999/02/22-rdf-syntax-ns#">
 <metadata>
  <rdf:RDF>
   <cc:Work rdf:about="">
    <dc:format>image/svg+xml</dc:format>
    <dc:type rdf:resource="http://purl.org/dc/dcmitype/StillImage"/>
   </cc:Work>
  </rdf:RDF>
 </metadata>
 <g fill="#f00" aria-label="vV">
  <path d="m19.573 4.6512q0.11719 0.70312 0.12891 1.125 0.02344 0.42188-0.15234 0.86719-0.32812 0-1.1016-0.046875-0.77344-0.046875-0.94922 0.33984-0.22266 0.5625-0.23438 0.94922-0.01172 0.375 0.15234 1.2188 0.19922 0.71484 0.91406 0.48047 0.72656-0.24609 1.2891-0.31641 0.05859 0.45703-0.14062 1.125-0.1875 0.66797-0.35156 0.84375-0.42188 0.42188-0.89062 0.42188-0.26953 0-0.5625-0.26953-0.28125-0.28125-0.35156-0.52734-0.32812-0.92578-0.51562-2.2148-0.17578-1.2891 0.29297-2.1445l-2.0508-0.10547q-0.10547 1.8047-0.22266 2.5195-0.10547 0.70312-0.375 1.793-0.24609 0.94922-0.9375 0.94922-0.30469 0-0.50391-0.22266-0.16406-0.14062-0.16406-0.46875 0-0.09375 0.03516-0.26953 0.04687-0.17578 0.22266-0.41016 0.17578-0.23438 0.26953-0.33984 0.14062-0.22266 0.36328-0.41016 0.23438-0.1875 0.42188-0.55078 0.15234-0.36328 0.36328-1.4766 0.21094-1.1133-0.36328-1.1133-0.48047 0-0.82031 0.15234-0.42188 0.19922-0.77344 0.72656h-0.26953q0.17578-1.1602 0.42188-1.7344 0.24609-0.58594 0.46875-0.78516 0.41016-0.35156 1.1016-0.35156 1.2188 0 2.6367 0.12891 1.4297 0.11719 2.6484 0.11719z"/>
  <path d="m16.678 16.276q-0.64453-0.28125-1.2891 0.1875-0.65625 0.46875-1.0781 1.418-0.42188 0.96094-0.26953 1.8398 0.15234 0.86719 0.79688 1.1484 0.82031 0.28125 1.5586-0.04687 0.72656-0.33984 1.0312-1.5586 0.62109-2.4141-0.75-2.9883zm1.5 0.51562 0.10547-1.3008q0.50391-0.15234 1.0547 0.08203 0.03516 0.85547-0.08203 2.9297-0.12891 2.0625-0.21094 7.8633 0 0.31641-0.05859 0.64453-0.07031 0.31641-0.17578 0.38672-0.48047 0.36328-1.043 0.05859-0.16406-0.07031-0.22266-0.43359-0.07031-0.375-0.07031-0.65625 0.01172-0.84375 0.09375-1.1367 0.07031-0.30469 0.10547-0.52734 0.17578-1.3008 0.24609-2.2031 0.05859-0.91406 0.12891-2.2266-0.92578 1.2656-2.7773 1.1016-1.2891-0.11719-1.9922-1.0664-0.70312-0.94922-0.57422-2.1445 0.12891-1.1953 1.0195-1.9336 0.87891-0.75 2.168-0.63281 1.6172 0.15234 2.2852 1.1953z"/>
 </g>
</svg>
