<?xml version="1.0" encoding="UTF-8"?>
<svg version="1.1" viewBox="-10472 -10457 32 32" xmlns="http://www.w3.org/2000/svg">
 <defs>
  <style>.cls-1 {
        fill: none;
      }

      .cls-2 {
        fill: #000;
      }</style>
 </defs>
 <g aria-label="6">
  <path d="m-10453-10443-1.067 0.08q-0.123-0.629-0.396-0.916-0.438-0.465-1.067-0.465-0.519 0-0.902 0.287-0.506 0.369-0.793 1.08-0.301 0.711-0.314 2.024 0.396-0.588 0.957-0.875 0.547-0.288 1.162-0.288 1.08 0 1.832 0.793 0.752 0.78 0.752 2.024 0 0.82-0.356 1.531-0.355 0.711-0.97 1.094-0.616 0.369-1.409 0.369-1.339 0-2.187-0.984-0.848-0.985-0.848-3.254 0-2.516 0.93-3.678 0.82-0.998 2.201-0.998 1.039 0 1.695 0.574 0.657 0.574 0.78 1.6zm-4.375 3.76q0 0.56 0.246 1.066 0.232 0.506 0.656 0.779 0.41 0.26 0.875 0.26 0.697 0 1.176-0.547 0.478-0.547 0.478-1.49 0-0.902-0.478-1.422-0.479-0.533-1.203-0.533-0.739 0-1.244 0.533-0.506 0.52-0.506 1.354z"/>
 </g>
</svg>
