<?xml version="1.0" encoding="UTF-8"?>
<svg version="1.1" viewBox="-10472 -10457 32 32" xmlns="http://www.w3.org/2000/svg">
 <defs>
  <style>.cls-1 {
        fill: none;
      }

      .cls-2 {
        fill: #000;
      }</style>
 </defs>
 <g aria-label="3">
  <path d="m-10459-10439 1.067-0.136q0.191 0.902 0.629 1.298 0.437 0.397 1.08 0.397 0.752 0 1.271-0.506 0.506-0.52 0.506-1.299 0-0.738-0.479-1.217-0.478-0.478-1.216-0.478-0.301 0-0.752 0.123l0.123-0.943q0.109 0.01 0.164 0.01 0.683 0 1.23-0.342 0.547-0.355 0.547-1.093 0-0.602-0.396-0.985-0.41-0.383-1.026-0.383-0.615 0-1.039 0.397-0.424 0.383-0.533 1.176l-1.066-0.205q0.191-1.067 0.888-1.655 0.698-0.588 1.723-0.588 0.711 0 1.312 0.301 0.602 0.301 0.916 0.834 0.315 0.533 0.315 1.121 0 0.561-0.301 1.026-0.314 0.465-0.902 0.724 0.779 0.192 1.203 0.752 0.424 0.561 0.424 1.395 0 1.135-0.821 1.928-0.834 0.793-2.105 0.793-1.148 0-1.9-0.684t-0.862-1.764z"/>
 </g>
</svg>
