<?xml version="1.0" encoding="UTF-8"?>
<svg version="1.1" viewBox="-10472 -10457 32 32" xmlns="http://www.w3.org/2000/svg">
 <defs>
  <style>.cls-1 {
        fill: none;
      }

      .cls-2 {
        fill: #000;
      }</style>
 </defs>
 <g aria-label="2">
  <path d="m-10453-10438v1.025h-5.756q-0.01-0.396 0.123-0.752 0.219-0.574 0.711-1.134 0.479-0.575 1.395-1.327 1.408-1.162 1.914-1.832 0.505-0.683 0.505-1.298 0-0.616-0.451-1.053-0.451-0.451-1.189-0.451-0.766 0-1.231 0.465-0.464 0.464-0.478 1.285l-1.094-0.11q0.109-1.23 0.848-1.873 0.738-0.642 1.982-0.642t1.983 0.697q0.724 0.697 0.724 1.709 0 0.519-0.205 1.039-0.219 0.506-0.711 1.066-0.506 0.547-1.654 1.518-0.957 0.793-1.231 1.08-0.273 0.287-0.451 0.588z"/>
 </g>
</svg>
