<?xml version="1.0" encoding="UTF-8"?>
<svg version="1.1" viewBox="-10472 -10457 32 32" xmlns="http://www.w3.org/2000/svg">
 <defs>
  <style>.cls-1 {
        fill: none;
      }

      .cls-2 {
        fill: #000;
      }</style>
 </defs>
 <g aria-label="8">
  <path d="m-10457-10441q-0.642-0.232-0.957-0.67-0.314-0.437-0.314-1.052 0-0.93 0.67-1.559t1.777-0.629q1.108 0 1.778 0.643 0.669 0.642 0.669 1.572 0 0.588-0.3 1.025-0.315 0.438-0.93 0.67 0.766 0.26 1.176 0.834t0.41 1.354q0 1.093-0.766 1.832-0.779 0.738-2.037 0.738-1.244 0-2.01-0.738-0.779-0.739-0.779-1.86 0-0.834 0.424-1.394 0.41-0.561 1.189-0.766zm-0.205-1.764q0 0.616 0.397 0.999 0.383 0.382 0.984 0.382 0.615 0 0.998-0.382 0.383-0.383 0.383-0.93 0-0.574-0.396-0.971-0.397-0.396-0.985-0.396-0.601 0-0.984 0.382-0.397 0.383-0.397 0.916zm-0.341 3.938q0 0.437 0.218 0.861 0.205 0.41 0.629 0.643 0.41 0.232 0.889 0.232 0.752 0 1.244-0.478 0.478-0.492 0.478-1.244 0-0.739-0.492-1.231-0.506-0.492-1.258-0.492-0.738 0-1.216 0.492-0.492 0.479-0.492 1.217z"/>
 </g>
</svg>
