<?xml version="1.0" encoding="UTF-8"?>
<svg version="1.1" viewBox="-10472 -10457 32 32" xmlns="http://www.w3.org/2000/svg">
 <defs>
  <style>.cls-1 {
        fill: none;
      }

      .cls-2 {
        fill: #000;
      }</style>
 </defs>
 <g aria-label="5">
  <path d="m-10459-10439 1.121-0.08q0.137 0.806 0.588 1.216 0.451 0.411 1.094 0.411 0.766 0 1.299-0.575 0.533-0.574 0.533-1.544 0-0.903-0.506-1.422-0.519-0.534-1.353-0.534-0.52 0-0.93 0.233-0.41 0.232-0.656 0.601l-1.012-0.123 0.848-4.47h4.334v1.011h-3.473l-0.465 2.352q0.779-0.561 1.641-0.561 1.134 0 1.927 0.793 0.78 0.793 0.78 2.037 0 1.176-0.684 2.038-0.834 1.052-2.283 1.052-1.189 0-1.941-0.656-0.752-0.67-0.862-1.777z"/>
 </g>
</svg>
