<?xml version="1.0" encoding="UTF-8"?>
<svg version="1.1" viewBox="-10472 -10457 32 32" xmlns="http://www.w3.org/2000/svg">
 <defs>
  <style>.cls-1 {
        fill: none;
      }

      .cls-2 {
        fill: #000;
      }</style>
 </defs>
 <g transform="translate(0 .007)" fill="#f00" aria-label="Ηχ">
  <path d="m-10471-10436 0.168-1.536q1.032-0.192 1.368-0.6 0.36-0.408 0.36-1.416v-9.288q0-0.744-0.168-0.984-0.168-0.264-0.696-0.264-0.144 0-0.36 0.02-0.216 0-0.36 0l-0.12-0.192 0.168-1.392q0.6 0 1.464 0.02 0.864 0 1.392 0 0.504 0 1.464-0.05t2.112-0.12l-0.144 1.584q-0.6 0.1-0.912 0.24-0.288 0.144-0.384 0.504-0.1 0.336-0.144 0.984l-0.144 3.456 3.144 0.05q0.744 0 1.368-0.02 0.624-0.05 1.488-0.144v-3.696q0-0.744-0.168-0.984-0.168-0.264-0.696-0.264-0.144 0-0.36 0.02-0.216 0-0.384 0l-0.12-0.192 0.192-1.392q0.24 0 0.792 0.02 0.576 0 1.2 0t1.032 0q0.48 0 1.392-0.05 0.936-0.05 2.088-0.12l-0.12 1.56q-0.888 0.12-1.176 0.384-0.264 0.264-0.312 0.936-0.07 1.08-0.12 2.352-0.05 1.248-0.1 2.544-0.05 1.272-0.07 2.448 0 1.176 0 2.088 0 1.008 0.192 1.368 0.216 0.36 0.792 0.36 0.24 0 0.504-0.02t0.408-0.05l0.1 0.168-0.216 1.512q-0.672-0.02-1.704-0.05-1.008-0.02-1.752-0.02-0.336 0-0.936 0-0.6 0.02-1.248 0.02-0.624 0-1.128 0.02l0.192-1.536q0.696-0.02 1.056-0.216 0.36-0.192 0.504-0.672 0.168-0.48 0.168-1.344v-3.096q-0.384 0-0.888 0-0.48-0.02-0.96-0.02t-0.792 0q-0.216 0-0.768 0.02-0.528 0.02-1.248 0.1-0.696 0.05-1.392 0.12l-0.07 3.432q0 0.984 0.192 1.32t0.744 0.336q0.216 0 0.456-0.02 0.264-0.02 0.432-0.05l0.12 0.144-0.216 1.512q-0.288-0.02-0.84-0.05-0.552 0-1.128-0.02-0.552 0-0.912 0-0.576 0-1.32 0.02-0.744 0.05-1.416 0.07-0.672 0.05-1.056 0.12z"/>
  <path d="m-10441-10434 0.336 0.336q-0.192 0.768-0.456 1.344-0.264 0.6-0.624 1.08t-0.888 0.936q-0.936 0-1.608-0.288-0.648-0.288-1.176-1.128-0.528-0.816-1.056-2.376-0.528-1.536-1.224-4.032l-1.008-3.672q-0.264-0.936-0.552-1.44-0.264-0.528-0.672-0.696t-1.056-0.02q-0.648 0.12-1.68 0.456l-0.264-0.288q0.1-2.16 1.44-3.408 1.536 0 2.52 1.128 1.008 1.128 1.704 3.648l0.96 3.456q0.528 1.944 0.936 3.216 0.432 1.296 0.936 1.896 0.504 0.624 1.296 0.576 0.816-0.05 2.136-0.72zm-10.08 3.744-0.312-0.05q-0.6-0.456-1.032-0.864-0.408-0.384-0.744-0.888 2.28-3.936 4.68-7.728 2.4-3.816 4.848-7.488 0.696 0.288 1.272 0.72 0.576 0.408 1.08 0.912l-0.02 0.432-1.656 1.968q-2.232 2.928-4.272 6.192-2.016 3.24-3.84 6.792z"/>
 </g>
</svg>
