<?xml version="1.0" encoding="UTF-8"?>
<svg version="1.1" viewBox="-10472 -10457 32 32" xmlns="http://www.w3.org/2000/svg">
 <defs>
  <style>.cls-1 {
        fill: none;
      }

      .cls-2 {
        fill: #000;
      }</style>
 </defs>
 <g fill="#f00" aria-label="v">
  <path d="m-10452-10445q0.123 0.807 0.151 1.286 0.03 0.478-0.192 0.998-0.383 0-1.367-0.04-0.998-0.04-1.066 0.396-0.192 0.697-0.206 1.203-0.01 0.492 0.192 1.285 0.232 0.821 1.066 0.547 0.821-0.273 1.449-0.355 0.08 0.519-0.123 1.285-0.218 0.765-0.437 0.971-0.438 0.478-1.025 0.478-0.288 0-0.616-0.301-0.328-0.314-0.424-0.601-0.382-1.08-0.574-2.557-0.205-1.476 0.315-2.461l-2.352-0.123q-0.123 2.078-0.219 2.776-0.09 0.683-0.41 1.914-0.26 1.107-1.094 1.107-0.314 0-0.574-0.246-0.177-0.192-0.177-0.547 0-0.1 0.05-0.301 0.04-0.219 0.178-0.383 0.123-0.177 0.355-0.382 0.178-0.246 0.424-0.383 0.246-0.151 0.424-0.588 0.191-0.41 0.438-1.682 0.246-1.285-0.438-1.285-0.506 0-0.93 0.164-0.464 0.233-0.902 0.848h-0.314q0.232-1.34 0.519-2.01 0.274-0.67 0.506-0.902 0.465-0.383 1.285-0.383 1.395 0 3.049 0.137 1.641 0.136 3.035 0.136z"/>
 </g>
</svg>
