<?xml version="1.0" encoding="UTF-8"?>
<svg version="1.1" viewBox="-10472 -10457 32 32" xmlns="http://www.w3.org/2000/svg">
 <defs>
  <style>.cls-1 {
        fill: none;
      }

      .cls-2 {
        fill: #000;
      }</style>
 </defs>
 <g fill="#f00" aria-label="b">
  <path d="m-10457-10443q-0.464 0.848-0.587 1.668-0.124 0.82-0.124 1.313 1.422-1.409 3.118-0.698 1.681 0.711 1.449 2.256-0.151 1.135-0.711 1.914-0.574 0.78-2.543 0.725-1.23-0.04-1.75-0.93-0.533-0.902-0.533-2.228 0-2.16 1.025-4.348 1.026-2.187 2.858-2.174 1.722 0.04 1.503 1.49-0.218 1.45-1.203 1.45-0.861 0.01-1.435-0.178-0.574-0.191-1.067-0.26zm0.862-1.039q0.314 0.67 0.765 0.711 0.438 0.03 0.67 0.01 0.369-0.01 0.479-0.575 0.1-0.56-0.246-0.669-0.492-0.165-0.848 0.01-0.369 0.164-0.82 0.506zm0.765 3.91q-0.478-0.07-0.998 0.479-0.519 0.547-0.752 1.394-0.396 1.6 0.465 1.655 1.244 0.123 1.832-1.34 0.465-1.108 0.26-1.586-0.205-0.492-0.807-0.602z"/>
 </g>
</svg>
