<?xml version="1.0" encoding="UTF-8"?>
<svg version="1.1" viewBox="-10472 -10457 32 32" xmlns="http://www.w3.org/2000/svg">
 <defs>
  <style>.cls-1 {
        fill: none;
      }

      .cls-2 {
        fill: #000;
      }</style>
 </defs>
 <g fill="#f00" aria-label=".">
  <path d="m-10459-10445q1.38-0.834 2.187-0.11 0.793 0.711 2.147 0.588 0.629-0.03 0.97-0.424 0.328-0.396 0.889-0.369 0.287-0.03 0.273 0.397-0.01 0.424-0.273 0.601l-5.4 5.77q0.519-0.301 0.888-0.52 0.369-0.232 1.586-0.09 0.67 0.08 1.422 1.052 0.752 0.957 1.176-0.246 0.246-0.929 0.683-0.984 0.438-0.06 0.438 0.451 0 0.697-0.506 1.627t-2.502 0.93q-0.697 0-1.107-0.411-0.424-0.423-0.848-0.751-0.437-0.329-1.025-0.288-0.588 0.04-1.655 0.985h-0.943v-0.465l5.961-6.398q-0.314 0.246-0.807 0.492-0.492 0.232-1.654 0.07-1.271-0.697-2.01-0.314-0.738 0.369-0.929 0.369 0.246-0.643 0.396-0.971 0.137-0.328 0.643-0.984z"/>
 </g>
</svg>
