<?xml version="1.0" encoding="UTF-8"?>
<svg version="1.1" viewBox="-10472 -10457 32 32" xmlns="http://www.w3.org/2000/svg">
 <defs>
  <style>.cls-1 {
        fill: none;
      }

      .cls-2 {
        fill: #000;
      }</style>
 </defs>
 <g fill="#f00" aria-label=",">
  <path d="m-10453-10445q-0.738 1.093-1.517 2.173-0.779 1.067-1.477 2.161 0.07 1.23 0.561 2.105 0.629 0.875 1.094 0.943 0.464 0.07 1.162-1.134 0.41-0.465 0.82-0.287 0.396 0.164 0.478 0.437 0.192 0.615 0 1.066-0.191 0.438-0.341 0.629-0.151 0.192-0.547 0.424-0.41 0.219-0.834 0.192-0.547-0.04-0.889-0.205-0.26-0.137-0.656-0.616-0.506-0.656-0.752-1.203-0.08-0.191-0.219-0.642-0.15-0.465-0.219-1.149l-1.968 2.981h-1.75q0.588-0.821 0.929-1.286 0.342-0.478 0.971-1.599 0.178-0.287 0.178-1.422-0.01-1.148-0.123-1.518-0.219-0.711-0.711-0.711-0.274 0-0.479 0.165-0.218 0.164-0.683 0.09-0.274-0.04-0.41-0.465-0.137-0.437 0.09-0.861 0.328-0.519 1.19-0.519 0.56 0 0.943 0.423 0.479 0.479 0.533 1.162 0.123 0.711 0.164 1.34 0.04 0.616-0.08 1.408l2.789-4.087z"/>
 </g>
</svg>
