<?xml version="1.0" encoding="UTF-8"?>
<svg version="1.1" viewBox="-10472 -10457 32 32" xmlns="http://www.w3.org/2000/svg">
 <defs>
  <style>.cls-1 {
        fill: none;
      }

      .cls-2 {
        fill: #000;
      }</style>
 </defs>
 <g fill="#f00" aria-label="c">
  <path d="m-10456-10437q-0.246-1.203-0.123-2.078 0.11-0.875-0.601-2.83-0.151-0.355-0.246-0.697-0.11-0.356-0.328-0.588-0.301-0.287-0.629-0.492-0.397-0.164-0.629-0.397-0.274-0.191-0.315-0.369-0.04-0.178-0.1-0.492 0.04-0.355 0.232-0.561 0.233-0.218 0.547-0.191 0.328 0.03 0.643 0.369 0.136 0.151 0.41 0.52 0.164 0.218 0.259 0.656 0.1 0.437 0.219 0.834 0.67 1.982 0.903 3.869 0.724-1.148 1.394-2.16 0.656-1.012 1.067-2.83 0.09-0.561-0.01-0.998-0.11-0.438 0.08-0.533 1.08 0.711 1.066 2.351-0.03 1.641-0.711 2.625-0.615 0.93-1.367 1.873-0.752 0.93-1.558 2.051-0.06 0.07-0.206 0.07z"/>
 </g>
</svg>
