<?xml version="1.0" encoding="UTF-8"?>
<!-- Created with Inkscape (http://www.inkscape.org/) -->
<svg width="32" height="32" version="1.1" viewBox="0 0 32 32" xmlns="http://www.w3.org/2000/svg" xmlns:cc="http://creativecommons.org/ns#" xmlns:dc="http://purl.org/dc/elements/1.1/" xmlns:rdf="http://www.w3.org/1999/02/22-rdf-syntax-ns#">
 <metadata>
  <rdf:RDF>
   <cc:Work rdf:about="">
    <dc:format>image/svg+xml</dc:format>
    <dc:type rdf:resource="http://purl.org/dc/dcmitype/StillImage"/>
   </cc:Work>
  </rdf:RDF>
 </metadata>
 <g fill="#f00" aria-label="]">
  <path d="m4.8337 12.199q0.23438-0.21094 0.66797 0.05859t0.09375 0.79688l-2.6719 2.8828q0.21094-0.16406 1.7812-0.77344 1.5703-0.62109 2.4141-0.82031 1.9336-0.44531 4.3242-0.07031 2.3906 0.36328 4.1484 1.1016 0.76172 0.32812 2.0508 1.0312 1.2891 0.69141 2.8477 1.3359t3.2695 1.0312q1.7109 0.38672 3.3164 0.09375 0.90234-0.15234 1.6758-0.76172 0.77344-0.60938 0.53906-1.0547-0.23438-0.43359-1.0312 0.08203-0.79688 0.50391-1.4297-1.0078-0.45703-1.1602 0.24609-1.8984 0.69141-0.75 1.8633-0.43359 1.7109 0.46875 1.6055 2.3789-0.04687 1.0195-0.89062 2.0156-0.84375 0.99609-1.875 1.2773-2.0859 0.59766-3.9258 0.36328t-3.4336-0.83203q-1.6055-0.60938-2.9648-1.3594-1.3594-0.76172-2.4844-1.2188-2.0977-0.85547-3.9375-1.2773-1.8516-0.42188-3.8672-0.035156-1.1836 0.22266-2.7188 0.83203-1.5352 0.60938-2.0742 1.0312-0.26953 0.23438-0.66797-0.082031t-0.17578-0.85547z" fill="#f00"/>
 </g>
</svg>
