<?xml version="1.0" encoding="UTF-8"?>
<!-- Created with Inkscape (http://www.inkscape.org/) -->
<svg width="32" height="32" version="1.1" viewBox="0 0 32 32" xmlns="http://www.w3.org/2000/svg" xmlns:cc="http://creativecommons.org/ns#" xmlns:dc="http://purl.org/dc/elements/1.1/" xmlns:rdf="http://www.w3.org/1999/02/22-rdf-syntax-ns#">
 <metadata>
  <rdf:RDF>
   <cc:Work rdf:about="">
    <dc:format>image/svg+xml</dc:format>
    <dc:type rdf:resource="http://purl.org/dc/dcmitype/StillImage"/>
   </cc:Work>
  </rdf:RDF>
 </metadata>
 <g aria-label="[">
  <path d="m25.127 15.184q0.375-0.99609 0.70312-1.7227 0.31641-0.73828 0.59766-0.73828 0.72656-0.11719 1.6289-0.14062 0.90234-0.02344 1.7227-0.02344 0.57422 0.01172 0.52734 0.31641-0.04687 0.30469-0.43359 0.375-0.30469 0.05859-0.52734 0.26953-0.22266 0.19922-0.29297 0.31641-0.84375 2.0859-1.3125 3.6445-0.46875 1.5469-1.1953 1.8281-0.77344 0.10547-1.6172 0.12891-0.85547 0.02344-1.6875-0.12891-0.35156-0.14062-0.23438-0.31641 0.10547-0.17578 0.32812-0.24609 0.24609-0.05859 0.52734-0.5625 0.43359-0.77344 0.85547-1.9219h-20.121l-1.2305 0.08203q-0.26953 0-0.59766 0-0.32812-0.01172-0.58594-0.04687-0.49219-0.04687-0.49219-0.57422 0-0.53906 0.52734-0.53906z"/>
 </g>
 <g aria-label="2">
  <path d="m18.839 28.331v1.0137h-5.6777q-0.01172-0.38086 0.12305-0.73242 0.2168-0.58008 0.69141-1.1426 0.48047-0.5625 1.3828-1.3008 1.4004-1.1484 1.8926-1.8164 0.49219-0.67383 0.49219-1.2715 0-0.62695-0.45117-1.0547-0.44531-0.43359-1.166-0.43359-0.76172 0-1.2188 0.45703t-0.46289 1.2656l-1.084-0.11133q0.11133-1.2129 0.83789-1.8457 0.72656-0.63867 1.9512-0.63867 1.2363 0 1.957 0.68555 0.7207 0.68555 0.7207 1.6992 0 0.51562-0.21094 1.0137-0.21094 0.49805-0.70312 1.0488-0.48633 0.55078-1.623 1.5117-0.94922 0.79688-1.2188 1.084-0.26953 0.28125-0.44531 0.56836z"/>
 </g>
</svg>
