<?xml version="1.0" encoding="UTF-8"?>
<!-- Created with Inkscape (http://www.inkscape.org/) -->
<svg width="32" height="32" version="1.1" viewBox="0 0 32 32"
    xmlns="http://www.w3.org/2000/svg"
    xmlns:cc="http://creativecommons.org/ns#"
    xmlns:dc="http://purl.org/dc/elements/1.1/"
    xmlns:rdf="http://www.w3.org/1999/02/22-rdf-syntax-ns#">
    <metadata>
        <rdf:RDF>
            <cc:Work rdf:about="">
                <dc:format>image/svg+xml</dc:format>
                <dc:type rdf:resource="http://purl.org/dc/dcmitype/StillImage"/>
            </cc:Work>
        </rdf:RDF>
    </metadata>
    <g aria-label="quality-psifiston">
        <path d="m26.952 12.286q1.3213-0.09668 2.3955-0.16113 1.0635-0.06445 2.4277-0.01074 0.29004 0.09668 0.24707 0.4082-0.04297 0.30078-0.29004 0.2793-0.12891 0.02148-0.16113 0.01074-0.02149-0.01074-0.19336-0.01074-0.50488 0.04297-1.6436 0.95606-1.1387 0.90234-2.4707 2.0195-1.3428 1.1064-2.0625 1.6221-0.71973 0.50488-1.2031 0.82715-0.49414 0.31152-1.6328 0.83789-1.2676 0.62305-3.3623 0.79492-2.0947 0.17188-3.5771 0.07519-1.4824-0.09668-2.5566-0.37598-1.0742-0.2793-2.5674-0.78418-1.4932-0.51562-4.2109-2.084-3.3193-1.9336-4.1895-2.5459-0.87012-0.6123-1.8477-1.2998-0.18262-0.32227 0.042969-0.64453 0.21484-0.33301 0.7627-0.010742 0.55859 0.32227 2.2666 1.5146 1.6973 1.1924 4.3506 2.6748 1.9229 1.0957 4.1787 1.7725 2.2559 0.66602 3.8242 0.71973 1.418 0.03223 2.8037-0.30078 1.375-0.33301 3.1045-1.5576 1.9766-1.7725 3.2764-3.1475 1.2891-1.375 2.2881-1.5791z"/>
    </g>
</svg>
