<?xml version="1.0" encoding="UTF-8"?>
<!-- Created with Inkscape (http://www.inkscape.org/) -->
<svg width="32" height="32" version="1.1" viewBox="0 0 32 32" xmlns="http://www.w3.org/2000/svg" xmlns:cc="http://creativecommons.org/ns#" xmlns:dc="http://purl.org/dc/elements/1.1/" xmlns:rdf="http://www.w3.org/1999/02/22-rdf-syntax-ns#">
 <metadata>
  <rdf:RDF>
   <cc:Work rdf:about="">
    <dc:format>image/svg+xml</dc:format>
    <dc:type rdf:resource="http://purl.org/dc/dcmitype/StillImage"/>
   </cc:Work>
  </rdf:RDF>
 </metadata>
 <g fill="#f00" aria-label="">
  <path d="m18.76 16.971c-0.672-0.312-1.272-0.624-1.824-0.912s-1.008-0.504-1.368-0.672c-0.528-0.216-1.104-0.408-1.728-0.6 0.552-0.792 1.296-1.2 2.256-1.2 0.768 0 1.416 0.288 1.944 0.816s0.792 1.176 0.792 1.92c0 0.24-0.024 0.456-0.072 0.648zm-5.352-1.128c0.48 0.192 1.008 0.384 1.536 0.6 0.504 0.192 1.032 0.432 1.56 0.72 0.552 0.288 1.128 0.6 1.728 0.888-0.528 0.672-1.248 1.008-2.136 1.008-0.744 0-1.392-0.264-1.92-0.792s-0.816-1.176-0.816-1.944c0-0.096 0.024-0.264 0.048-0.48zm2.688-3.024c-1.344 0-2.352 0.6-3.048 1.776-0.96-0.24-1.992-0.384-3.048-0.456-1.056-0.048-2.016 0.024-2.904 0.216-0.552 0.144-1.344 0.432-2.4 0.84s-1.656 0.672-1.8 0.768l2.688-2.88c0.24-0.336 0.192-0.6-0.096-0.792s-0.504-0.216-0.672-0.072l-3.312 3.84c-0.144 0.36-0.072 0.648 0.192 0.864s0.48 0.24 0.648 0.072c0.384-0.288 1.08-0.624 2.088-1.032 1.032-0.408 1.944-0.696 2.712-0.84 0.96-0.168 1.896-0.192 2.784-0.096 0.912 0.096 1.824 0.288 2.736 0.576-0.048 0.24-0.072 0.48-0.072 0.72 0 0.96 0.36 1.8 1.032 2.472 0.696 0.696 1.512 1.032 2.472 1.032 1.2 0 2.136-0.48 2.832-1.44 1.224 0.576 2.568 1.008 4.056 1.344s3.072 0.264 4.776-0.24c0.696-0.192 1.32-0.6 1.896-1.272s0.864-1.344 0.864-2.016c0.096-1.272-0.432-2.064-1.584-2.4-0.792-0.192-1.416-0.048-1.896 0.456-0.456 0.504-0.528 1.128-0.216 1.896 0.432 1.008 0.912 1.344 1.44 1.008s0.864-0.384 1.008-0.096c0.168 0.312 0 0.672-0.528 1.08s-1.08 0.648-1.704 0.744c-1.224 0.24-2.496 0.168-3.84-0.216s-2.592-0.84-3.744-1.368c0.096-0.312 0.12-0.648 0.12-0.984 0-0.96-0.336-1.776-1.008-2.472-0.672-0.672-1.512-1.032-2.472-1.032z"/>
 </g>
</svg>
