<?xml version="1.0" encoding="UTF-8"?>
<!-- Created with Inkscape (http://www.inkscape.org/) -->
<svg width="32" height="32" version="1.1" viewBox="0 0 32 32" xmlns="http://www.w3.org/2000/svg" xmlns:cc="http://creativecommons.org/ns#" xmlns:dc="http://purl.org/dc/elements/1.1/" xmlns:rdf="http://www.w3.org/1999/02/22-rdf-syntax-ns#">
 <metadata>
  <rdf:RDF>
   <cc:Work rdf:about="">
    <dc:format>image/svg+xml</dc:format>
    <dc:type rdf:resource="http://purl.org/dc/dcmitype/StillImage"/>
   </cc:Work>
  </rdf:RDF>
 </metadata>
 <g aria-label="[">
  <path d="m25.127 15.184q0.375-0.99609 0.70312-1.7227 0.31641-0.73828 0.59766-0.73828 0.72656-0.11719 1.6289-0.14062 0.90234-0.02344 1.7227-0.02344 0.57422 0.01172 0.52734 0.31641-0.04687 0.30469-0.43359 0.375-0.30469 0.05859-0.52734 0.26953-0.22266 0.19922-0.29297 0.31641-0.84375 2.0859-1.3125 3.6445-0.46875 1.5469-1.1953 1.8281-0.77344 0.10547-1.6172 0.12891-0.85547 0.02344-1.6875-0.12891-0.35156-0.14062-0.23438-0.31641 0.10547-0.17578 0.32812-0.24609 0.24609-0.05859 0.52734-0.5625 0.43359-0.77344 0.85547-1.9219h-20.121l-1.2305 0.08203q-0.26953 0-0.59766 0-0.32812-0.01172-0.58594-0.04687-0.49219-0.04687-0.49219-0.57422 0-0.53906 0.52734-0.53906z"/>
 </g>
 <g aria-label="1">
  <path d="m17.582 29.345h-1.0547v-6.7207q-0.38086 0.36328-1.002 0.72656-0.61524 0.36328-1.1074 0.54492v-1.0195q0.88476-0.41602 1.5469-1.0078 0.66211-0.5918 0.9375-1.1484h0.67969z"/>
 </g>
</svg>
