<?xml version="1.0" encoding="UTF-8"?>
<!-- Created with Inkscape (http://www.inkscape.org/) -->
<svg width="32" height="32" version="1.1" viewBox="0 0 32 32" xmlns="http://www.w3.org/2000/svg" xmlns:cc="http://creativecommons.org/ns#" xmlns:dc="http://purl.org/dc/elements/1.1/" xmlns:rdf="http://www.w3.org/1999/02/22-rdf-syntax-ns#">
 <metadata>
  <rdf:RDF>
   <cc:Work rdf:about="">
    <dc:format>image/svg+xml</dc:format>
    <dc:type rdf:resource="http://purl.org/dc/dcmitype/StillImage"/>
   </cc:Work>
  </rdf:RDF>
 </metadata>
 <g aria-label="\">
  <path d="m8.9247 5.3141q0.16406-0.32812 1.791 0.068359 1.627 0.38281 2.6797 0.875 0.5332 0.24609 0.61524 0.79297 0.0957 0.54688 0.12305 1.7363 0.04102 3.3633 0.24609 5.3184 0.20508 1.9551 0.41016 3.3086 0.3418 2.1738 0.83398 3.6641 0.50586 1.4766 1.5723 2.5566 1.0527 1.0938 1.9688 1.6816 0.92969 0.57422 3.5273 1.1074 0.45117 0 0.38281 0.21875-0.06836 0.20508-0.56055 0.19141-1.5859-0.32812-1.5312-0.27344 0.06836 0.04102-1.2715-0.38281-2.4199-0.98437-3.8008-2.7344-1.3672-1.7637-2.3516-3.4453-1.4355-2.666-2.3242-5.5371-0.88867-2.8848-1.2852-7.5195-0.15039-1.2715-0.62891-1.1895-0.46484 0.068359-0.39648-0.4375z"/>
 </g>
</svg>
