<?xml version="1.0" encoding="UTF-8"?>
<!-- Created with Inkscape (http://www.inkscape.org/) -->
<svg width="32" height="32" version="1.1" viewBox="0 0 32 32" xmlns="http://www.w3.org/2000/svg" xmlns:cc="http://creativecommons.org/ns#" xmlns:dc="http://purl.org/dc/elements/1.1/" xmlns:rdf="http://www.w3.org/1999/02/22-rdf-syntax-ns#">
 <metadata>
  <rdf:RDF>
   <cc:Work rdf:about="">
    <dc:format>image/svg+xml</dc:format>
    <dc:type rdf:resource="http://purl.org/dc/dcmitype/StillImage"/>
   </cc:Work>
  </rdf:RDF>
 </metadata>
 <g transform="translate(-.40916 .097895)" aria-label="1">
  <g transform="translate(.49132 -.58786)" aria-label="2">
   <path d="m18.839 28.331v1.0137h-5.6777q-0.01172-0.38086 0.12305-0.73242 0.2168-0.58008 0.69141-1.1426 0.48047-0.5625 1.3828-1.3008 1.4004-1.1484 1.8926-1.8164 0.49219-0.67383 0.49219-1.2715 0-0.62695-0.45117-1.0547-0.44531-0.43359-1.166-0.43359-0.76172 0-1.2188 0.45703t-0.46289 1.2656l-1.084-0.11133q0.11133-1.2129 0.83789-1.8457 0.72656-0.63867 1.9512-0.63867 1.2363 0 1.957 0.68555t0.7207 1.6992q0 0.51562-0.21094 1.0137-0.21094 0.49805-0.70312 1.0488-0.48633 0.55078-1.623 1.5117-0.94922 0.79688-1.2188 1.084-0.26953 0.28125-0.44531 0.56836z"/>
  </g>
 </g>
 <g fill="#f00" aria-label="]">
  <path d="m4.1082 13.865q0.23633-0.2041 0.69824 0.01074 0.45117 0.21484 0.12891 0.71973l-2.5674 2.8037q0.2041-0.16113 1.7832-0.81641 1.5684-0.66602 2.417-0.90234 1.9551-0.52637 4.4258-0.33301 2.46 0.19336 4.2969 0.7627 0.80566 0.24707 2.1592 0.80566 1.3535 0.55859 2.9863 1.0527 1.6328 0.49414 3.4053 0.74121 1.7725 0.24707 3.3945-0.11816 0.92383-0.19336 1.6865-0.79492 0.75195-0.6123 0.4834-0.99902-0.25781-0.38672-1.042 0.12891-0.79492 0.51562-1.5254-0.82715-0.53711-1.0312 0.13965-1.751 0.67676-0.73047 1.8906-0.51562 1.7725 0.32226 1.7725 2.084 0.01074 0.93457-0.79492 1.9014-0.81641 0.95606-1.8584 1.2783-2.0947 0.67676-3.9854 0.58008-1.9014-0.10742-3.5664-0.55859-1.6758-0.45117-3.1045-1.0635-1.4395-0.6123-2.6104-0.95605-2.2021-0.65527-4.1143-0.92383-1.9121-0.2793-3.9531 0.2041-1.1924 0.2793-2.7285 0.93457-1.5361 0.64453-2.0732 1.0635-0.25781 0.23633-0.67676-0.03223-0.42969-0.26855-0.23633-0.77344z"/>
 </g>
</svg>
