<?xml version="1.0" encoding="UTF-8"?>
<!-- Created with Inkscape (http://www.inkscape.org/) -->
<svg width="32" height="32" version="1.1" viewBox="0 0 32 32" xmlns="http://www.w3.org/2000/svg" xmlns:cc="http://creativecommons.org/ns#" xmlns:dc="http://purl.org/dc/elements/1.1/" xmlns:rdf="http://www.w3.org/1999/02/22-rdf-syntax-ns#">
 <metadata>
  <rdf:RDF>
   <cc:Work rdf:about="">
    <dc:format>image/svg+xml</dc:format>
    <dc:type rdf:resource="http://purl.org/dc/dcmitype/StillImage"/>
   </cc:Work>
  </rdf:RDF>
 </metadata>
 <g aria-label="/">
  <path d="m27.07 12.263q1.2612-0.09229 2.2866-0.15381 1.0151-0.06152 2.3174-0.01025 0.27686 0.09229 0.23584 0.38965-0.04102 0.28711-0.27686 0.2666-0.12305 0.02051-0.14355 0.01025-0.03076-0.01025-0.19482-0.01025-0.95361 0.04102-1.8047 0.9126-0.85107 0.86133-2.1226 1.9277-1.2817 1.0562-2.8301 2.3892t-2.4917 2.0098q-0.95361 0.67676-1.9175 0.96387-0.96387 0.28711-2.7378 0.46143-1.7739 0.17432-4.1631 0.14356-1.8867-0.17432-3.5684-0.32813-1.6919-0.16406-4.6963-0.7998-1.7739-0.42041-2.6045-0.68701-0.83057-0.27686-2.3481-0.9331-0.061523-0.33838 0.25635-0.25635 0.31787 0.08203 1.6406 0.46143 2.2866 0.60498 3.312 0.7998 1.0254 0.18457 2.7173 0.3999 2.6865 0.36914 3.9683 0.43066 1.2817 0.06152 3.0659-0.02051 2.2251-0.2666 3.3633-0.76904 1.1382-0.50244 3.4248-3.0864 1.8867-1.6919 3.1274-3.0044 1.2305-1.3125 2.1841-1.5073z"/>
 </g>
</svg>
