<?xml version="1.0" encoding="UTF-8"?>
<!-- Created with Inkscape (http://www.inkscape.org/) -->
<svg width="32" height="32" version="1.1" viewBox="0 0 32 32"
    xmlns="http://www.w3.org/2000/svg"
    xmlns:cc="http://creativecommons.org/ns#"
    xmlns:dc="http://purl.org/dc/elements/1.1/"
    xmlns:rdf="http://www.w3.org/1999/02/22-rdf-syntax-ns#">
    <metadata>
        <rdf:RDF>
            <cc:Work rdf:about="">
                <dc:format>image/svg+xml</dc:format>
                <dc:type rdf:resource="http://purl.org/dc/dcmitype/StillImage"/>
            </cc:Work>
        </rdf:RDF>
    </metadata>
    <g aria-label="quality-antikenoma">
        <path d="m1.635 13.315q3.2979-0.16113 7.7666-0.38672 4.4687-0.23633 7.7559-0.13965 2.8574 0.0752 5.5 0.34375 2.6318 0.26856 4.0176 0.58008 1.418 0.32227 2.5996 1.085 1.1709 0.7627 1.3428 1.5361 0.17188 0.77344 0.02148 1.2998-0.15039 0.52637-1.7188 1.2246-1.1064 0.23633-2.3203 0.32227-1.2246 0.0752-2.1377 0.05371-0.36523-0.15039-0.05371-0.31152 0.31152-0.17188 0.88086-0.44043 0.55859-0.2793 1.1602-0.70898 0.59082-0.42969 0.77344-1.0957 0.35449-1.2139-1.0635-1.8477t-3.3838-0.91309q-1.9766-0.2793-3.8994-0.32227-1.9229-0.04297-2.5889-0.0752-1.3857-0.06445-3.8457 0.03223-2.46 0.08594-4.8555 0.22559-2.4062 0.12891-4.1787 0.24707-1.7725 0.11816-1.7725 0.11816-0.35449-0.06445-0.34375-0.41895 0.010742-0.36523 0.34375-0.4082z"/>
    </g>
</svg>
