<?xml version="1.0" encoding="UTF-8"?>
<!-- Created with Inkscape (http://www.inkscape.org/) -->
<svg width="32" height="32" version="1.1" viewBox="0 0 32 32"
    xmlns="http://www.w3.org/2000/svg">
    <g aria-label="stavros">
        <path d="m16.644 16.628h3.78c0.28 0 0.42-0.112 0.42-0.392v-0.476c0-0.252-0.14-0.392-0.42-0.392h-3.78v-3.78c-0.028-0.28-0.168-0.42-0.42-0.42h-0.476c-0.28 0-0.392 0.14-0.392 0.42l0.028 3.78h-3.808c-0.28 0-0.42 0.14-0.42 0.392v0.476c0 0.28 0.14 0.392 0.42 0.392h3.78v3.808c0 0.28 0.112 0.392 0.392 0.392h0.476c0.28 0.028 0.42-0.112 0.42-0.392z"/>
    </g>
</svg>
