<?xml version="1.0" encoding="UTF-8"?>
<!-- Created with Inkscape (http://www.inkscape.org/) -->
<svg width="32" height="32" version="1.1" viewBox="0 0 32 32" xmlns="http://www.w3.org/2000/svg" xmlns:cc="http://creativecommons.org/ns#" xmlns:dc="http://purl.org/dc/elements/1.1/" xmlns:rdf="http://www.w3.org/1999/02/22-rdf-syntax-ns#">
 <metadata>
  <rdf:RDF>
   <cc:Work rdf:about="">
    <dc:format>image/svg+xml</dc:format>
    <dc:type rdf:resource="http://purl.org/dc/dcmitype/StillImage"/>
   </cc:Work>
  </rdf:RDF>
 </metadata>
 <g fill="#f00" aria-label="G">
  <path d="m12.644 15.356q2.0098 0.04102 4.0332 0 2.0234-0.04102 4.0469-0.02734 0 0.01367 0.01367 0.01367 0.24609 0.04102 0.24609 0.41016 0 1.4902 0.02734 2.748 0.02734 1.2578 0.02734 2.7344 0 0.01367 0.02734 0.04102 0.02734 0.01367 0.02734 0.01367 0 0.28711-0.05469 0.28711-0.17773 0.06836-0.54688 0.06836-0.25977 0-0.54688-0.02734t-0.56055-0.04102q-0.01367 0-0.04102 0-0.02734 0-0.06836 0-0.15039-0.01367-0.08203-1.832 0.06836-1.832 0.05469-3.2676-2.0098-0.04102-4.1016 0.01367-2.1055 0.04102-3.9512-0.01367-0.27344-0.02734-0.27344-0.41016 0-1.5586 0-2.8027-0.01367-1.2578-0.01367-2.8301 0.3418-0.12305 0.83398-0.05469 0.47852 0.05469 0.88867 0.05469 0.01367 1.4355 0.02734 2.4609 0 1.0254-0.01367 2.4609z"/>
 </g>
</svg>
