<?xml version="1.0" encoding="UTF-8"?>
<!-- Created with Inkscape (http://www.inkscape.org/) -->
<svg width="32" height="32" version="1.1" viewBox="0 0 32 32" xmlns="http://www.w3.org/2000/svg" xmlns:cc="http://creativecommons.org/ns#" xmlns:dc="http://purl.org/dc/elements/1.1/" xmlns:rdf="http://www.w3.org/1999/02/22-rdf-syntax-ns#">
 <metadata>
  <rdf:RDF>
   <cc:Work rdf:about="">
    <dc:format>image/svg+xml</dc:format>
    <dc:type rdf:resource="http://purl.org/dc/dcmitype/StillImage"/>
   </cc:Work>
  </rdf:RDF>
 </metadata>
 <g fill="#f00" aria-label="s">
  <path d="m11.972 12.922q2.0645-0.01367 4.1562-0.01367 2.0781-0.01367 4.1289-0.05469 0.15039 0.19141 0.12305 0.50586-0.04102 0.31445-0.10938 0.51953-0.41016 0.0957-2.748 0.0957-2.3379 0-4.0605 0 0 1.4355 0.06836 3.2676 0.05469 1.8184-0.10938 1.8184-0.42383 0-0.90234 0.06836-0.49219 0.05469-0.84766-0.06836-0.05469 0-0.05469-0.27344 0-0.01367 0.02734-0.02734t0.02734-0.02734q0-1.4766 0.01367-2.6797 0.01367-1.2168 0.01367-2.707 0-0.36914 0.27344-0.42383z"/>
 </g>
</svg>
