<?xml version="1.0" encoding="UTF-8"?>
<!-- Created with Inkscape (http://www.inkscape.org/) -->
<svg width="32" height="32" version="1.1" viewBox="0 0 32 32" xmlns="http://www.w3.org/2000/svg" xmlns:cc="http://creativecommons.org/ns#" xmlns:dc="http://purl.org/dc/elements/1.1/" xmlns:rdf="http://www.w3.org/1999/02/22-rdf-syntax-ns#">
 <metadata>
  <rdf:RDF>
   <cc:Work rdf:about="">
    <dc:format>image/svg+xml</dc:format>
    <dc:type rdf:resource="http://purl.org/dc/dcmitype/StillImage"/>
   </cc:Work>
  </rdf:RDF>
 </metadata>
 <g fill="#f00" aria-label="J">
  <path d="m16.873 15.506q1.6543 0.01367 3.3086 0.02734t3.2949 0.02734q0.27344 0.04101 0.27344 0.41016 0 1.4902 0.04102 2.3789 0.02734 0.88867 0.02734 2.3652 0 0.02734 0.02734 0.04102 0.01367 0.01367 0.01367 0.01367 0 0.28711-0.04101 0.28711-0.3418 0.12305-0.83398 0.06836-0.49219-0.06836-0.92969-0.06836-0.15039-0.01367-0.0957-1.5176 0.04101-1.5039 0.02734-2.9395-1.0938 0-2.5566-0.04102-1.4629-0.04102-2.5977-0.05469-1.0664 0.04102-1.2715 0-0.20508-0.05469-0.45117-0.0957-0.16406-0.01367-0.10938-1.5039 0.05469-1.5039 0.04102-2.9395-1.6953 0-4.0332 0.01367-2.3379 0-2.7617-0.10938-0.068359-0.20508-0.095703-0.50586-0.041016-0.31445 0.095703-0.50586 2.0645 0.02734 4.1562 0.04101 2.0781 0.01367 4.1426 0.02734 0.25977 0.04102 0.25977 0.41016 0 1.1895 0.02734 2.1602 0.02734 0.95703 0.04102 2.0098z"/>
 </g>
</svg>
