<?xml version="1.0" encoding="UTF-8"?>
<!-- Created with Inkscape (http://www.inkscape.org/) -->
<svg width="32" height="32" version="1.1" viewBox="0 0 32 32" xmlns="http://www.w3.org/2000/svg" xmlns:cc="http://creativecommons.org/ns#" xmlns:dc="http://purl.org/dc/elements/1.1/" xmlns:rdf="http://www.w3.org/1999/02/22-rdf-syntax-ns#">
 <metadata>
  <rdf:RDF>
   <cc:Work rdf:about="">
    <dc:format>image/svg+xml</dc:format>
    <dc:type rdf:resource="http://purl.org/dc/dcmitype/StillImage"/>
   </cc:Work>
  </rdf:RDF>
 </metadata>
 <g aria-label="a">
  <path d="m10.203 13.947q0.24609 0.12305 0.56055 0.35547 0.30078 0.21875 0.49219 0.3418 1.1895 0.82031 2.1191 1.4082 0.92969 0.57422 2.2559 0.82031 0.62891 0.12305 1.3809 0.06836 0.75195-0.05469 1.0391-0.16406 0.82031-0.28711 0.90234-0.99805 0.06836-0.72461-0.17773-1.1758-0.16406-0.30078-0.12305-0.66992 0.04102-0.36914 0.38281-0.45117 1.4766 0.12305 2.4609 0.80664 0.9707 0.68359 1.0938 1.3535l0.01367 0.16406q0 0.75195-0.5332 1.4766-0.5332 0.72461-1.6816 0.99805-2.707 0.62891-5.332-0.41016-1.4766-0.57422-2.8711-1.3262-1.4082-0.76562-2.5566-1.668-0.36914-0.28711-0.15039-0.72461 0.20508-0.45117 0.72461-0.20508z"/>
 </g>
</svg>
