<?xml version="1.0" encoding="UTF-8"?>
<!-- Created with Inkscape (http://www.inkscape.org/) -->
<svg width="32" height="32" version="1.1" viewBox="0 0 32 32" xmlns="http://www.w3.org/2000/svg" xmlns:cc="http://creativecommons.org/ns#" xmlns:dc="http://purl.org/dc/elements/1.1/" xmlns:rdf="http://www.w3.org/1999/02/22-rdf-syntax-ns#">
 <g fill="#f00" aria-label="koronis">
  <path d="m17.08 18.52c0-0.624-0.384-0.936-1.104-0.936-0.768 0-1.128 0.312-1.128 0.936-0.024 0.696 0.36 1.032 1.128 1.032 0.72 0 1.104-0.336 1.104-1.032zm5.568 1.032c-0.144-1.8-0.792-3.432-1.992-4.896s-2.76-2.208-4.68-2.208c-1.944 0-3.504 0.744-4.656 2.208-1.176 1.488-1.824 3.12-1.968 4.896h0.648c0.072-1.44 0.744-2.64 2.016-3.6 1.248-0.96 2.568-1.44 3.96-1.44s2.736 0.48 3.984 1.416c1.248 0.96 1.92 2.16 1.992 3.624z"/>
 </g>
</svg>
