<?xml version="1.0" encoding="UTF-8"?>
<!-- Created with Inkscape (http://www.inkscape.org/) -->
<svg width="32" height="32" version="1.1" viewBox="0 0 32 32" xmlns="http://www.w3.org/2000/svg" xmlns:cc="http://creativecommons.org/ns#" xmlns:dc="http://purl.org/dc/elements/1.1/" xmlns:rdf="http://www.w3.org/1999/02/22-rdf-syntax-ns#">
 <metadata>
  <rdf:RDF>
   <cc:Work rdf:about="">
    <dc:format>image/svg+xml</dc:format>
    <dc:type rdf:resource="http://purl.org/dc/dcmitype/StillImage"/>
   </cc:Work>
  </rdf:RDF>
 </metadata>
 <g fill="#f00" aria-label="f">
  <path d="m14.009 14.317q0-0.36914 0.27344-0.41016 1.6406 0 3.3086-0.01367 1.6543-0.01367 3.2949-0.04102 0.02734-1.0391 0.02734-1.3672t0-1.5039q0-0.36914 0.27344-0.42383 2.0645-0.01367 4.1562-0.01367 2.0781-0.01367 4.1289-0.04102 0.15039 0.19141 0.12305 0.50586-0.04102 0.30078-0.10938 0.50586-0.42383 0.10938-2.748 0.10938-2.3379-0.01367-4.0605-0.01367 0 1.4355 0.06836 2.2832t-0.0957 0.86133q-0.23242 0.04102-0.4375 0.0957-0.21875 0.05469-1.2988 0-1.1074 0.02734-2.5703 0.06836-1.4629 0.02734-2.5703 0.02734 0 0.10938 0 0.20508 0 0.0957 0 0.17774 0.02734 2.7754-0.02734 2.7754-0.23242 0.04102-0.4375 0.0957-0.21875 0.04102-1.2852 0-1.1211 0.02734-2.584 0.06836-1.4629 0.02734-2.5703 0.02734-0.013672 3.1172-0.068359 3.1172-0.42383 0-0.90234 0.06836-0.49219 0.05469-0.84766-0.06836-0.054687 0-0.054687-0.28711 0-0.01367 0.027344-0.02734t0.027344-0.02734q0-1.4766 0.027344-1.6953t0.027344-1.709q0-0.36914 0.25977-0.42383 1.6543 0 3.3223-0.01367 1.6543-0.01367 3.2949-0.02734 0.01367-0.72461 0.02734-1.4355 0-0.71094 0-1.4492zm-10.678 3.582h1.1895q0.10938 0 0.32812 0.01367 0.21875 0 0.28711 0.05469 0.082031 0.08203-0.027344 0.0957-0.10938 0-0.17773 0.45117l-0.13672 0.95703q-0.068359 0.61523-0.57422 0.61523h-1.1758q-0.095703 0-0.35547-0.01367-0.27344-0.01367-0.28711-0.12305 0-0.12305 0.095703-0.15039 0.095703-0.04102 0.12305-0.32812l0.13672-0.95703q0.082031-0.61524 0.57422-0.61524z"/>
 </g>
</svg>
