<?xml version="1.0" encoding="UTF-8"?>
<!-- Created with Inkscape (http://www.inkscape.org/) -->
<svg width="32" height="32" version="1.1" viewBox="0 0 32 32" xmlns="http://www.w3.org/2000/svg" xmlns:cc="http://creativecommons.org/ns#" xmlns:dc="http://purl.org/dc/elements/1.1/" xmlns:rdf="http://www.w3.org/1999/02/22-rdf-syntax-ns#">
 <g aria-label="tetrapli">
  <path d="m24.445 14.488c-0.448 0-0.7 0.28-0.784 0.84l-0.196 1.316c-0.028 0.28-0.112 0.42-0.196 0.448-0.084 0.056-0.14 0.112-0.112 0.224 0 0.112 0.14 0.168 0.392 0.168 0.252 0.028 0.42 0.028 0.504 0.028h1.652c0.42 0 0.7-0.308 0.784-0.868l0.168-1.316c0.056-0.392 0.14-0.616 0.252-0.616 0.084 0 0.112-0.056 0.028-0.14-0.056-0.056-0.196-0.084-0.392-0.084h-0.448zm-11.984 0c-0.448 0-0.728 0.28-0.812 0.84l-0.196 1.316c-0.028 0.28-0.056 0.42-0.14 0.448-0.084 0.056-0.14 0.112-0.14 0.224s0.112 0.168 0.364 0.168c0.252 0.028 0.42 0.028 0.504 0.028h1.652c0.448 0 0.7-0.308 0.784-0.868l0.196-1.316c0.056-0.392 0.14-0.616 0.224-0.616s0.112-0.056 0.028-0.14c-0.028-0.056-0.168-0.084-0.364-0.084h-0.476zm6.104 0c-0.448 0-0.7 0.28-0.784 0.84l-0.196 1.316c-0.028 0.28-0.112 0.42-0.196 0.448-0.084 0.056-0.14 0.112-0.112 0.224 0 0.112 0.14 0.168 0.392 0.168 0.252 0.028 0.42 0.028 0.504 0.028h1.652c0.42 0 0.7-0.308 0.784-0.868l0.168-1.316c0.056-0.392 0.14-0.616 0.252-0.616 0.084 0 0.112-0.056 0.028-0.14-0.056-0.056-0.196-0.084-0.392-0.084h-0.448zm-12.264 0c-0.448 0-0.7 0.28-0.784 0.84l-0.196 1.316c-0.028 0.28-0.084 0.42-0.168 0.448-0.084 0.056-0.14 0.112-0.14 0.224 0.028 0.112 0.14 0.168 0.392 0.168 0.252 0.028 0.392 0.028 0.476 0.028h1.652c0.476 0 0.756-0.308 0.812-0.868l0.168-1.316c0.056-0.392 0.14-0.616 0.252-0.616 0.084 0 0.112-0.056 0.028-0.14-0.056-0.056-0.196-0.084-0.392-0.084h-0.448z"/>
 </g>
</svg>
