<?xml version="1.0" encoding="UTF-8"?>
<!-- Created with Inkscape (http://www.inkscape.org/) -->
<svg width="32" height="32" version="1.1" viewBox="0 0 32 32" xmlns="http://www.w3.org/2000/svg" xmlns:cc="http://creativecommons.org/ns#" xmlns:dc="http://purl.org/dc/elements/1.1/" xmlns:rdf="http://www.w3.org/1999/02/22-rdf-syntax-ns#">
 <metadata>
  <rdf:RDF>
   <cc:Work rdf:about="">
    <dc:format>image/svg+xml</dc:format>
    <dc:type rdf:resource="http://purl.org/dc/dcmitype/StillImage"/>
   </cc:Work>
  </rdf:RDF>
 </metadata>
 <g fill="#f00" aria-label="c">
  <path d="m12.993 15.534q0.01367-0.9707 0.04102-1.8594 0.01367-0.90234 0.01367-1.9961 0-0.3418 0.27344-0.38281 2.0645-0.01367 4.1562-0.02734 2.0781-0.01367 4.1152-0.04102 0.13672 0.17774 0.10938 0.46484-0.04102 0.28711-0.0957 0.47852-0.42383 0.0957-2.748 0.0957-2.3242-0.01367-4.0469-0.01367 0 1.3535 0.05469 2.7344t-0.10938 1.3809q-0.23242 0.04102-0.45117 0.0957-0.21875 0.04102-1.2852 0-1.1211 0.02734-2.584 0.06836-1.4629 0.02734-2.5566 0.02734 0 1.3398 0.041016 2.7344 0.041016 1.3809-0.12305 1.3945-0.41016 0-0.90234 0.06836-0.49219 0.05469-0.86133-0.06836-0.041016 0-0.041016-0.25977 0 0 0.027344-0.01367 0.013672-0.01367 0.013672-0.04101 0.013672-1.3672 0.054687-2.1875 0.027344-0.83398 0.027344-2.2148 0-0.3418 0.25977-0.38281 1.6406-0.01367 3.3086-0.01367 1.668-0.01367 3.3086-0.04102zm11.184-3.7324h1.1895q0.0957 0 0.31445 0.01367 0.21875 0 0.30078 0.05469 0.06836 0.08203-0.04102 0.0957-0.10938 0-0.16406 0.45117l-0.12305 0.95703q-0.10938 0.61523-0.58789 0.61523h-1.1758q-0.10938 0-0.36914-0.01367-0.25977-0.01367-0.25977-0.12305-0.02734-0.12305 0.08203-0.15039 0.0957-0.04102 0.13672-0.32812l0.12305-0.95703q0.06836-0.61523 0.57422-0.61523z"/>
 </g>
</svg>
