<?xml version="1.0" encoding="UTF-8"?>
<!-- Created with Inkscape (http://www.inkscape.org/) -->
<svg width="32" height="32" version="1.1" viewBox="0 0 32 32" xmlns="http://www.w3.org/2000/svg" xmlns:cc="http://creativecommons.org/ns#" xmlns:dc="http://purl.org/dc/elements/1.1/" xmlns:rdf="http://www.w3.org/1999/02/22-rdf-syntax-ns#">
 <metadata>
  <rdf:RDF>
   <cc:Work rdf:about="">
    <dc:format>image/svg+xml</dc:format>
    <dc:type rdf:resource="http://purl.org/dc/dcmitype/StillImage"/>
   </cc:Work>
  </rdf:RDF>
 </metadata>
 <g fill="#f00" aria-label="k">
  <path d="m15.13 15.499q0.01367-1.0391 0.04102-2.0098 0.01367-0.9707 0.01367-2.1465 0-0.38281 0.25976-0.42383 2.0781-0.01367 4.1699-0.01367 2.0781-0.01367 4.1289-0.05469 0.24609 0.3418 0.01367 1.0254-0.41016 0.10938-2.748 0.10938-2.3379-0.01367-4.0605-0.01367 0 1.4355 0.05469 2.9258 0.04102 1.4902-0.12305 1.5039-0.21875 0.04102-0.42383 0.0957-0.21875 0.05469-1.2988 0.01367-1.1211 0.01367-2.584 0.05469-1.4629 0.04102-2.5566 0.04102 0 1.4355 0.04102 2.9395 0.04101 1.5039-0.12305 1.5176-0.42383 0-0.90234 0.06836-0.49219 0.05469-0.84766-0.06836-0.054687 0-0.054687-0.28711 0-0.01367 0.027344-0.02734t0.027344-0.02734q0-1.4766 0.041016-2.3652 0.027344-0.88867 0.027344-2.3789 0-0.38281 0.25977-0.42383 1.6406 0 3.3086-0.01367 1.668-0.01367 3.3086-0.04102zm-4.0742-3.9375h1.2031q0.0957 0 0.32812 0.01367 0.21875 0 0.27344 0.05469 0.08203 0.08203-0.02734 0.0957-0.10938 0-0.17773 0.45117l-0.12305 0.95703q-0.06836 0.61523-0.57422 0.61523h-1.1758q-0.10938 0-0.36914-0.01367-0.25976-0.01367-0.27344-0.12305 0-0.12305 0.0957-0.15039 0.0957-0.04102 0.12305-0.32812l0.12305-0.95703q0.10938-0.61524 0.57422-0.61524z"/>
 </g>
</svg>
