<?xml version="1.0" standalone="no"?>
<!DOCTYPE svg PUBLIC "-//W3C//DTD SVG 20010904//EN"
 "http://www.w3.org/TR/2001/REC-SVG-20010904/DTD/svg10.dtd">
<svg version="1.0" xmlns="http://www.w3.org/2000/svg"
 width="1024.000000pt" height="1024.000000pt" viewBox="0 0 1024.000000 1024.000000"
 preserveAspectRatio="xMidYMid meet">
<metadata>
Created by potrace 1.14, written by Peter Selinger 2001-2017
</metadata>
<g transform="translate(0.000000,1024.000000) scale(0.100000,-0.100000)"
fill="#000000" stroke="none">
<path d="M0 5120 l0 -5120 5120 0 5120 0 0 5120 0 5120 -5120 0 -5120 0 0
-5120z m704 1596 c123 -66 236 -100 381 -115 76 -8 1204 -11 3833 -11 4126 0
3829 5 4039 -65 217 -72 365 -168 548 -356 148 -152 256 -285 286 -355 17 -36
20 -61 17 -112 -4 -58 -8 -68 -36 -93 -42 -37 -60 -36 -136 6 -76 42 -169 78
-267 101 -70 17 -264 19 -3879 24 -3561 5 -3812 7 -3910 23 -323 54 -524 159
-760 396 -128 128 -310 354 -345 427 -30 63 -12 133 44 167 43 27 78 20 185
-37z m6081 -1587 c208 -14 235 -21 283 -73 52 -56 96 -139 178 -331 80 -189
256 -545 312 -630 21 -33 49 -65 63 -72 13 -6 40 -19 60 -28 38 -17 66 -55 55
-74 -34 -54 -346 -77 -677 -50 -158 13 -200 28 -274 104 -58 59 -96 127 -155
275 -23 58 -91 222 -151 365 -108 256 -111 261 -172 321 -46 45 -75 65 -107
74 -76 21 -100 32 -111 52 -22 40 13 73 86 80 61 6 465 -2 610 -13z m1935 -28
c52 -7 107 -17 123 -23 67 -26 143 -144 220 -343 76 -198 178 -389 308 -580
73 -108 98 -131 170 -158 85 -32 100 -74 37 -104 -68 -34 -485 -46 -766 -23
-108 9 -143 15 -183 35 -111 57 -162 127 -242 331 -57 146 -149 349 -241 532
-73 145 -120 184 -260 212 -97 20 -141 89 -78 125 23 14 77 15 422 11 217 -2
438 -9 490 -15z m-7534 -147 c50 -25 80 -84 96 -189 9 -67 8 -93 -5 -159 -18
-89 -68 -200 -129 -290 -59 -86 -86 -151 -99 -238 -21 -132 14 -199 131 -252
121 -55 186 -59 845 -52 772 8 1143 22 1790 71 672 51 1104 74 1465 77 252 2
291 -3 409 -59 164 -78 312 -285 377 -528 27 -103 25 -331 -4 -438 -63 -232
-181 -345 -367 -355 -120 -6 -157 7 -236 87 -100 102 -121 188 -79 323 23 76
85 176 128 206 16 12 53 27 80 33 63 13 96 38 124 92 51 100 60 198 25 267
-28 56 -98 95 -190 105 -112 12 -895 -48 -1307 -101 -221 -28 -432 -61 -665
-104 -242 -45 -396 -61 -665 -67 -350 -8 -691 16 -1120 78 -303 44 -461 89
-685 194 -223 103 -346 214 -444 397 -126 236 -145 561 -44 763 36 72 111 126
208 152 77 20 311 11 361 -13z m1801 -202 c76 -39 106 -102 105 -223 -2 -159
-90 -238 -256 -227 -152 10 -216 82 -216 243 0 120 55 201 154 226 55 14 167
4 213 -19z m1071 -1 c66 -34 95 -86 100 -184 9 -178 -53 -254 -213 -265 -172
-11 -260 72 -259 243 2 163 87 240 255 231 51 -3 89 -11 117 -25z"/>
</g>
</svg>
