<?xml version="1.0" encoding="UTF-8"?>
<!-- Created with Inkscape (http://www.inkscape.org/) -->
<svg width="199.57mm" height="247.76mm" version="1.1" viewBox="0 0 199.57 247.76" xmlns="http://www.w3.org/2000/svg">
 <g transform="translate(-6.5806 -8.8594)" fill="none" stroke="#000" stroke-linecap="round">
  <path transform="matrix(.26458 0 0 .26458 10.181 12.459)" d="m448.15 20.375h75.322" stroke-width="67.963" style="paint-order:markers fill stroke"/>
  <path transform="matrix(.26458 0 0 .26458 10.181 12.459)" d="m706.52 206.1-3e-5 642.53c0 22.267-17.926 40.193-40.193 40.193h-605.76c-22.267 0-40.193-17.926-40.193-40.193v-788.06c0-22.267 17.926-40.193 40.193-40.193h387.58" stroke-width="67.963" style="paint-order:markers fill stroke"/>
  <path d="m197.14 66.968-37.797 0.03423c-5.8914 0.0053-10.639-4.7333-10.644-10.625l-0.0349-38.506" stroke-width="17.982" style="paint-order:markers fill stroke"/>
  <path d="m148.68 17.85c48.475 49.096 48.475 49.096 48.475 49.096" stroke-width="17.982"/>
 </g>
</svg>
